<?xml version="1.0" encoding="utf-8"?>
<!-- Generator: Adobe Illustrator 21.0.0, SVG Export Plug-In . SVG Version: 6.00 Build 0)  -->
<svg version="1.1" id="Слой_1" xmlns="http://www.w3.org/2000/svg" xmlns:xlink="http://www.w3.org/1999/xlink" x="0px" y="0px" width="198" height="30"
	 viewBox="0 0 198 30" style="enable-background:new 0 0 198 30;" xml:space="preserve">
<style type="text/css">
	.st0{fill:#252525;}
	.st1{fill:#DB1339;}
</style>
<title>logo</title>
<g>
	<g>
		<g>
			<path class="st0" d="M94.9,11.9h3.2v13h-3.2V11.9z"/>
		</g>
		<g>
			<path class="st0" d="M108.7,11.6c4,0,7.2,2.8,7.2,6.8c0,4-3.2,6.8-7.1,6.8s-7.1-2.8-7.1-6.8C101.6,14.4,104.8,11.6,108.7,11.6z
				 M108.7,22.5c2.1,0,3.9-1.6,3.9-4.1c0-2.4-1.8-4.1-3.9-4.1s-3.9,1.7-3.9,4.1C104.9,20.8,106.6,22.5,108.7,22.5z"/>
		</g>
		<g>
			<path class="st0" d="M119.6,14.7h-1.7v-2.6h1.8V8.4h3.2v3.7h3v2.6h-3v5.1c0,2.1,1.7,2.4,2.6,2.4c0.2,0,0.3,0,0.6-0.1V25
				c-0.3,0-0.6,0.1-1,0.1c-1.8,0-5.4-0.5-5.4-4.9V14.7z"/>
		</g>
		<g>
			<path class="st0" d="M129.9,21.2c1,0.9,2.4,1.4,3.7,1.4c1.1,0,1.8-0.5,1.8-1.3c0-2-6.5-1.5-6.5-5.8c0-2.6,2.2-3.9,5-3.9
				c1.6,0,3.2,0.4,4.4,1.5l-1.2,2.3c-0.8-0.7-2.1-1.1-3.3-1.1c-1.1,0-1.8,0.4-1.8,1.3c0,2.1,6.5,1.5,6.5,5.7c0,2.3-1.9,4-4.9,4
				c-1.8,0-3.8-0.6-5.1-1.9L129.9,21.2z"/>
		</g>
		<g>
			<path class="st0" d="M141.9,11.9h3v1c0,0.5-0.1,0.9-0.1,0.9h0.1c0.8-1.4,2.4-2.2,4.2-2.2c3.5,0,5.8,2.8,5.8,6.8
				c0,4.1-2.5,6.8-5.9,6.8c-1.5,0-2.8-0.7-3.8-1.8h-0.1c0,0,0.1,0.5,0.1,1.1V30h-3.2V11.9z M148.3,22.5c1.8,0,3.3-1.5,3.3-4
				c0-2.5-1.3-4.1-3.2-4.1c-1.7,0-3.3,1.2-3.3,4.1C145.1,20.5,146.2,22.5,148.3,22.5z"/>
		</g>
		<g>
			<path class="st0" d="M158.3,6.8h3.2v13.6c0,1.4,0.5,1.8,1.3,1.8c0.1,0,0.3,0,0.5,0V25c-0.2,0-0.6,0.1-1,0.1c-1.8,0-4-0.5-4-4.2
				V6.8z"/>
		</g>
		<g>
			<path class="st0" d="M172.5,11.6c4,0,7.2,2.8,7.2,6.8c0,4-3.2,6.8-7.1,6.8c-4,0-7.1-2.8-7.1-6.8
				C165.4,14.4,168.6,11.6,172.5,11.6z M172.6,22.5c2.1,0,3.9-1.6,3.9-4.1c0-2.4-1.8-4.1-3.9-4.1c-2.1,0-3.9,1.7-3.9,4.1
				C168.7,20.8,170.4,22.5,172.6,22.5z"/>
		</g>
		<g>
			<path class="st0" d="M183.2,11.9h3.2v13h-3.2V11.9z"/>
		</g>
		<g>
			<path class="st0" d="M191.2,14.7h-1.7v-2.6h1.8V8.4h3.2v3.7h3v2.6h-3v5.1c0,2.1,1.7,2.4,2.6,2.4c0.2,0,0.3,0,0.6-0.1V25
				c-0.3,0-0.6,0.1-1,0.1c-1.8,0-5.4-0.5-5.4-4.9V14.7z"/>
		</g>
	</g>
	<g>
		<path class="st1" d="M184.7,7.1c0.6,0,1.2,0.5,1.2,1.2c0,0.6-0.5,1.2-1.2,1.2s-1.2-0.5-1.2-1.2C183.6,7.6,184.1,7.1,184.7,7.1
			 M184.7,6c-1.2,0-2.2,1-2.2,2.2c0,1.2,1,2.2,2.2,2.2s2.2-1,2.2-2.2C187,7,186,6,184.7,6L184.7,6z"/>
	</g>
	<g>
		<path class="st1" d="M96.4,6c-1,0-1.9,0.7-2.1,1.6h-4.4L87,4.8H0v1.1h86.6l2.8,2.8h4.8c0.2,1,1.1,1.8,2.2,1.8c1.2,0,2.2-1,2.2-2.2
			C98.6,7,97.6,6,96.4,6z M96.4,9.4c-0.6,0-1.2-0.5-1.2-1.2c0-0.6,0.5-1.2,1.2-1.2c0.6,0,1.2,0.5,1.2,1.2C97.6,8.9,97,9.4,96.4,9.4z
			"/>
		<path class="st1" d="M90.3,10.2c-0.5,0-0.9,0.1-1.2,0.4l-2.1-2.1H0v1.1h86.5l1.8,1.8C88.1,11.7,88,12,88,12.4c0,1.2,1,2.2,2.2,2.2
			c1.2,0,2.2-1,2.2-2.2C92.5,11.2,91.5,10.2,90.3,10.2z M90.3,13.6c-0.6,0-1.2-0.5-1.2-1.2s0.5-1.2,1.2-1.2c0.6,0,1.2,0.5,1.2,1.2
			S90.9,13.6,90.3,13.6z"/>
		<path class="st1" d="M91.1,4.5c1.2,0,2.2-1,2.2-2.2c0-1.2-1-2.2-2.2-2.2c-1,0-1.8,0.7-2.1,1.6H0v1.1h88.9
			C89.1,3.7,90,4.5,91.1,4.5z M91.1,1.1c0.6,0,1.2,0.5,1.2,1.2s-0.5,1.2-1.2,1.2c-0.6,0-1.2-0.5-1.2-1.2S90.4,1.1,91.1,1.1z"/>
	</g>
</g>
</svg>
