<svg xmlns="http://www.w3.org/2000/svg" width="124" height="30" viewBox="0 0 124 30">
  <defs>
    <style>
      .cls-1 { fill: #252525; } .cls-1, .cls-2 { fill-rule: evenodd; } .cls-2 { fill: #ff3471; }
    </style>
  </defs>
  <path id="logo" d="M24.71 15.22a8.5 8.5 0 0 1-16.994 0 8.5 8.5 0 0 1 16.994 0zm-14.07 0a5.573 5.573 0 0 0 11.144 0 5.575 5.575 0 0 0-11.144 0zm24.166 8.425c-3.45 0-4.68-2.285-4.68-5.43v-8.6h-2.34V6.943h2.34L30.71 2.7h2.34v4.242h3.833v2.67H33.05v8.6c0 1.78.82 2.61 1.756 2.61h2.077v2.522zM53.046 10.3a7.366 7.366 0 0 0-3.784-.745c-2.6 0-4.153.95-4.153 2.106 0 1.04.81 1.87 4.15 1.87 4.74 0 7.6 1.28 7.6 4.9 0 3.12-2.956 5.22-7.606 5.22a13.325 13.325 0 0 1-7.75-2.61l1.55-2.1a10.335 10.335 0 0 0 6.2 2.048c2.31 0 4.59-.74 4.59-2.55 0-1.1-.555-1.99-4.59-1.99-5.15 0-7.138-1.75-7.138-4.774 0-2.67 3.012-4.806 7.136-4.806A13.676 13.676 0 0 1 54.662 8l.056.024zm23.335 4.95a8.2 8.2 0 0 1-8.36 8.4 9.82 9.82 0 0 1-4.15-1.126V30h-2.93V6.942h2.34l.35 1.78a10.6 10.6 0 0 1 5.266-1.87c4.037 0 7.488 3.77 7.488 8.397zm-12.51-3.8v7.862a7.7 7.7 0 0 0 4.446 1.365 5.207 5.207 0 0 0 5.148-5.43 5.224 5.224 0 0 0-5.15-5.427 7.888 7.888 0 0 0-4.446 1.632zm19.388 12.1H80.33V0h2.924v23.556zm20.894-8.336a8.5 8.5 0 0 1-16.995 0 8.5 8.5 0 0 1 16.995.005zm-14.07 0a5.574 5.574 0 0 0 11.145 0 5.575 5.575 0 0 0-11.145.005zm21.08 8.337h-2.924V6.95h2.926v16.61zm10.77.09c-3.45 0-4.68-2.28-4.68-5.43v-8.6h-2.35V6.95h2.34l.59-4.242h2.34V6.95H124v2.67h-3.832v8.6c0 1.78.82 2.61 1.755 2.61H124v2.52zM3.3 23.56H.38V6.942H3.3v16.614zM109.692 1.04a1.808 1.808 0 0 1 1.872 1.72 1.785 1.785 0 0 1-1.872 1.69 1.758 1.758 0 0 1-1.842-1.69 1.78 1.78 0 0 1 1.842-1.72z" class="cls-1"/>
  <path id="dot" d="M1.98 1.01a2.02 2.02 0 0 1 2.015 2.01A1.99 1.99 0 0 1 1.98 4.994 1.964 1.964 0 0 1 0 3.02a1.993 1.993 0 0 1 1.98-2.01z" class="cls-2"/>
</svg>
