<svg xmlns="http://www.w3.org/2000/svg" width="117" height="30" viewBox="0 0 117.11 29.97">
	<defs>
		<style>.cls-1{fill:#252525;}.cls-2{fill:#db1339;}</style>
	</defs>
	<title>logo</title>
	<g id="Слой_2" data-name="Слой 2"><g id="Слой_1-2" data-name="Слой 1"><path class="cls-1" d="M14.48,11.87h3.24v13H14.48Z"/><path class="cls-1" d="M28.28,11.57a6.81,6.81,0,1,1,0,13.61,6.81,6.81,0,1,1,0-13.61Zm0,10.86a3.87,3.87,0,0,0,3.88-4.05,3.87,3.87,0,1,0-7.73,0A3.85,3.85,0,0,0,28.31,22.42Z"/><path class="cls-1" d="M39.19,14.62H37.51V12.05h1.76V8.33h3.16v3.72h3v2.57h-3V19.7A2.31,2.31,0,0,0,45,22.14a2.61,2.61,0,0,0,.59-.05v2.83a8.36,8.36,0,0,1-1,.08c-1.81,0-5.41-.54-5.41-4.89Z"/><path class="cls-1" d="M49.44,21.13a5.68,5.68,0,0,0,3.7,1.43c1.15,0,1.81-.48,1.81-1.3,0-2-6.45-1.53-6.45-5.79,0-2.55,2.24-3.9,5-3.9A6.67,6.67,0,0,1,57.85,13l-1.2,2.27a5.5,5.5,0,0,0-3.29-1.12c-1.12,0-1.81.43-1.81,1.25,0,2.06,6.45,1.48,6.45,5.74,0,2.29-1.94,4-4.92,4A7.43,7.43,0,0,1,48,23.27Z"/><path class="cls-1" d="M61.48,11.87h3v1a8.8,8.8,0,0,1-.05.92h.05a4.76,4.76,0,0,1,4.18-2.19c3.52,0,5.76,2.78,5.76,6.81s-2.52,6.81-5.94,6.81a4.71,4.71,0,0,1-3.75-1.84h-.05a7.51,7.51,0,0,1,.08,1.12V30H61.48Zm6.38,10.58c1.78,0,3.26-1.45,3.26-4s-1.33-4.08-3.21-4.08c-1.71,0-3.29,1.22-3.29,4.1C64.62,20.46,65.74,22.45,67.86,22.45Z"/><path class="cls-1" d="M77.88,6.77H81.1V20.34c0,1.43.48,1.78,1.33,1.78a3.51,3.51,0,0,0,.48,0v2.83a8.41,8.41,0,0,1-1,.08c-1.78,0-4-.46-4-4.18Z"/><path class="cls-1" d="M92.09,11.57A6.81,6.81,0,1,1,85,18.37,6.84,6.84,0,0,1,92.09,11.57Zm0,10.86A3.87,3.87,0,0,0,96,18.37a3.87,3.87,0,1,0-7.73,0A3.85,3.85,0,0,0,92.11,22.42Z"/><path class="cls-1" d="M102.7,11.87h3.24v13H102.7Z"/><path class="cls-1" d="M110.71,14.62H109V12.05h1.76V8.33h3.16v3.72h3v2.57h-3V19.7a2.31,2.31,0,0,0,2.57,2.45,2.6,2.6,0,0,0,.59-.05v2.83a8.34,8.34,0,0,1-1,.08c-1.81,0-5.41-.54-5.41-4.89Z"/><path class="cls-2" d="M16,6A2.23,2.23,0,0,0,13.84,7.6H9.41L6.62,4.81H0V5.87H6.18L9,8.66H13.8A2.23,2.23,0,1,0,16,6Zm0,3.41A1.17,1.17,0,1,1,17.16,8.2,1.17,1.17,0,0,1,16,9.37Z"/><path class="cls-2" d="M104.29,6a2.23,2.23,0,1,0,2.24,2.23A2.24,2.24,0,0,0,104.29,6Zm0,3.41a1.17,1.17,0,1,1,1.17-1.17A1.17,1.17,0,0,1,104.29,9.37Z"/><path class="cls-2" d="M9.87,10.17a2.22,2.22,0,0,0-1.22.36L6.53,8.42H0V9.49H6.1l1.83,1.83a2.21,2.21,0,0,0-.29,1.09,2.24,2.24,0,1,0,2.24-2.23Zm0,3.41A1.17,1.17,0,1,1,11,12.41,1.17,1.17,0,0,1,9.87,13.58Z"/><path class="cls-2" d="M10.67,4.47a2.23,2.23,0,1,0-2.12-2.9H0V2.63H8.48A2.23,2.23,0,0,0,10.67,4.47Zm0-3.41A1.17,1.17,0,1,1,9.5,2.23,1.17,1.17,0,0,1,10.67,1.06Z"/></g></g></svg>