<svg xmlns="http://www.w3.org/2000/svg" width="410" height="43" viewBox="0 0 410 42.94"><defs><style>.cls-1{fill:#1a1a1a;}.cls-2{fill:red;}</style></defs><title>logo</title>

<path class="cls-1" d="M280.31,13.39h4.19v23h-4.19Z"/><path class="cls-1" d="M298,19.5c5.07,0,9.12,3.61,9.12,8.66s-4.06,8.66-9.08,8.66S289,33.26,289,28.16,293,19.5,298,19.5Zm0,13.83A4.93,4.93,0,0,0,303,28.42q0-.12,0-.25a4.93,4.93,0,1,0-9.84,0,4.9,4.9,0,0,0,4.64,5.14H298Z"/><path class="cls-1" d="M313.83,17h-7.56V13.41h19.28V17H318V36.44h-4.15Z"/><path class="cls-1" d="M326.37,31.67a7.23,7.23,0,0,0,4.71,1.82c1.46,0,2.3-.62,2.3-1.65,0-2.59-8.21-1.94-8.21-7.37,0-3.25,2.85-5,6.33-5a8.49,8.49,0,0,1,5.58,1.88l-1.52,2.88a7,7,0,0,0-4.19-1.43c-1.43,0-2.3.55-2.3,1.59,0,2.62,8.21,1.88,8.21,7.3,0,2.92-2.46,5.1-6.26,5.1a9.46,9.46,0,0,1-6.49-2.43Z"/>

<path class="cls-1" d="M341.25,19.88H345v1.24A11.29,11.29,0,0,1,345,22.3H345a6.07,6.07,0,0,1,5.25-2.79c4.48,0,7.33,3.54,7.33,8.66s-3.22,8.66-7.56,8.66a6,6,0,0,1-4.78-2.33h0a9.6,9.6,0,0,1,.1,1.43v7h-4.11Zm8.11,13.47c2.27,0,4.16-1.85,4.16-5.13s-1.73-5.2-4.13-5.2c-2.17,0-4.19,1.56-4.19,5.23,0,2.57,1.42,5.1,4.12,5.1Z"/><path class="cls-1" d="M361.59,13.39h4.09V30.66c0,1.81.62,2.27,1.69,2.27a4.4,4.4,0,0,0,.62,0v3.61a10.64,10.64,0,0,1-1.3.1c-2.27,0-5.1-.58-5.1-5.32Z"/><path class="cls-1" d="M379.17,19.5c5.07,0,9.12,3.61,9.12,8.66s-4.06,8.66-9.08,8.66-9.08-3.57-9.08-8.66S374.17,19.5,379.17,19.5Zm0,13.83a4.93,4.93,0,0,0,4.94-4.91q0-.12,0-.25a4.93,4.93,0,1,0-9.84,0,4.9,4.9,0,0,0,4.64,5.14h.26Z"/><path class="cls-1" d="M392.18,19.88h4.16V36.44h-4.13Z"/><path class="cls-1" d="M401.87,23.39h-2.14V20.11H402V15.37h4v4.74h3.77v3.28H406v6.46A2.94,2.94,0,0,0,409.25,33a3.31,3.31,0,0,0,.75-.06v3.61a10.58,10.58,0,0,1-1.26.1c-2.3,0-6.88-.68-6.88-6.23Z"/><circle class="cls-2" cx="394.23" cy="15.09" r="1.93"/><path class="cls-2" d="M282.4,6.74a1.93,1.93,0,0,0-1.87,1.45H276.3l-2.41-2.42H0v1H273.47l2.42,2.42h4.63a1.93,1.93,0,1,0,1.87-2.42Z"/><path class="cls-2" d="M274,11.56a1.92,1.92,0,0,0-1.16.4L271,10.11H0v1H270.57l1.64,1.64A1.93,1.93,0,1,0,274,11.59Z"/><path class="cls-2" d="M278,3.87a1.93,1.93,0,1,0-1.83-2.42H0v1H276.15A1.93,1.93,0,0,0,278,3.87Z"/>

</svg>