<?xml version="1.0" encoding="utf-8"?>
<!-- Generator: Adobe Illustrator 21.0.0, SVG Export Plug-In . SVG Version: 6.00 Build 0)  -->
<svg version="1.1" id="Слой_1" xmlns="http://www.w3.org/2000/svg" xmlns:xlink="http://www.w3.org/1999/xlink" x="0px" y="0px"
	 viewBox="0 0 778 30" style="enable-background:new 0 0 778 30;" xml:space="preserve">
<style type="text/css">
	.st0{fill:#252525;}
	.st1{fill:#DB1339;}
</style>
<title>logo</title>
<g>
	<g>
		<g>
			<path class="st0" d="M674.9,11.9h3.2v13h-3.2V11.9z"/>
		</g>
		<g>
			<path class="st0" d="M688.7,11.6c4,0,7.2,2.8,7.2,6.8s-3.2,6.8-7.1,6.8c-3.9,0-7.1-2.8-7.1-6.8C681.6,14.4,684.8,11.6,688.7,11.6
				z M688.7,22.5c2.1,0,3.9-1.6,3.9-4.1c0-2.4-1.8-4.1-3.9-4.1c-2.1,0-3.9,1.7-3.9,4.1C684.9,20.8,686.6,22.5,688.7,22.5z"/>
		</g>
		<g>
			<path class="st0" d="M699.6,14.7h-1.7v-2.6h1.8V8.4h3.2v3.7h3v2.6h-3v5.1c0,2.1,1.7,2.4,2.6,2.4c0.2,0,0.3,0,0.6-0.1V25
				c-0.3,0-0.6,0.1-1,0.1c-1.8,0-5.4-0.5-5.4-4.9v-5.5H699.6z"/>
		</g>
		<g>
			<path class="st0" d="M709.9,21.2c1,0.9,2.4,1.4,3.7,1.4c1.1,0,1.8-0.5,1.8-1.3c0-2-6.5-1.5-6.5-5.8c0-2.6,2.2-3.9,5-3.9
				c1.6,0,3.2,0.4,4.4,1.5l-1.2,2.3c-0.8-0.7-2.1-1.1-3.3-1.1c-1.1,0-1.8,0.4-1.8,1.3c0,2.1,6.5,1.5,6.5,5.7c0,2.3-1.9,4-4.9,4
				c-1.8,0-3.8-0.6-5.1-1.9L709.9,21.2z"/>
		</g>
		<g>
			<path class="st0" d="M721.9,11.9h3v1c0,0.5-0.1,0.9-0.1,0.9h0.1c0.8-1.4,2.4-2.2,4.2-2.2c3.5,0,5.8,2.8,5.8,6.8
				c0,4.1-2.5,6.8-5.9,6.8c-1.5,0-2.8-0.7-3.8-1.8h-0.1c0,0,0.1,0.5,0.1,1.1V30H722L721.9,11.9L721.9,11.9z M728.3,22.5
				c1.8,0,3.3-1.5,3.3-4s-1.3-4.1-3.2-4.1c-1.7,0-3.3,1.2-3.3,4.1C725.1,20.5,726.2,22.5,728.3,22.5z"/>
		</g>
		<g>
			<path class="st0" d="M738.3,6.8h3.2v13.6c0,1.4,0.5,1.8,1.3,1.8c0.1,0,0.3,0,0.5,0V25c-0.2,0-0.6,0.1-1,0.1c-1.8,0-4-0.5-4-4.2
				V6.8z"/>
		</g>
		<g>
			<path class="st0" d="M752.5,11.6c4,0,7.2,2.8,7.2,6.8s-3.2,6.8-7.1,6.8c-4,0-7.1-2.8-7.1-6.8C745.4,14.4,748.6,11.6,752.5,11.6z
				 M752.6,22.5c2.1,0,3.9-1.6,3.9-4.1c0-2.4-1.8-4.1-3.9-4.1c-2.1,0-3.9,1.7-3.9,4.1S750.4,22.5,752.6,22.5z"/>
		</g>
		<g>
			<path class="st0" d="M763.2,11.9h3.2v13h-3.2V11.9z"/>
		</g>
		<g>
			<path class="st0" d="M771.2,14.7h-1.7v-2.6h1.8V8.4h3.2v3.7h3v2.6h-3v5.1c0,2.1,1.7,2.4,2.6,2.4c0.2,0,0.3,0,0.6-0.1V25
				c-0.3,0-0.6,0.1-1,0.1c-1.8,0-5.4-0.5-5.4-4.9v-5.5H771.2z"/>
		</g>
	</g>
	<g>
		<path class="st1" d="M764.7,6c-1.2,0-2.2,1-2.2,2.2s1,2.2,2.2,2.2s2.2-1,2.2-2.2C767,7,766,6,764.7,6z M764.7,9.5
			c-0.7,0-1.3-0.6-1.3-1.3c0-0.7,0.6-1.3,1.3-1.3c0.8,0,1.3,0.6,1.3,1.3C766,8.9,765.4,9.5,764.7,9.5z"/>
	</g>
	<g>
		<path class="st1" d="M676.4,6c-1,0-1.9,0.7-2.1,1.6h-4.4L667,4.8H0v1.1h666.6l2.8,2.8h4.8c0.2,1,1.1,1.8,2.2,1.8
			c1.2,0,2.2-1,2.2-2.2C678.6,7,677.6,6,676.4,6z M676.4,9.4c-0.6,0-1.2-0.5-1.2-1.2c0-0.6,0.5-1.2,1.2-1.2c0.6,0,1.2,0.5,1.2,1.2
			S677,9.4,676.4,9.4z"/>
		<path class="st1" d="M670.3,10.2c-0.5,0-0.9,0.1-1.2,0.4L667,8.5H0v1.1h666.5l1.8,1.8c-0.2,0.3-0.3,0.6-0.3,1c0,1.2,1,2.2,2.2,2.2
			s2.2-1,2.2-2.2C672.5,11.2,671.5,10.2,670.3,10.2z M670.3,13.6c-0.6,0-1.2-0.5-1.2-1.2s0.5-1.2,1.2-1.2c0.6,0,1.2,0.5,1.2,1.2
			S670.9,13.6,670.3,13.6z"/>
		<path class="st1" d="M671.1,4.5c1.2,0,2.2-1,2.2-2.2s-1-2.2-2.2-2.2c-1,0-1.8,0.7-2.1,1.6H0v1.1h668.9
			C669.1,3.7,670,4.5,671.1,4.5z M671.1,1.1c0.6,0,1.2,0.5,1.2,1.2s-0.5,1.2-1.2,1.2c-0.6,0-1.2-0.5-1.2-1.2S670.4,1.1,671.1,1.1z"
			/>
	</g>
</g>
</svg>
