<svg xmlns="http://www.w3.org/2000/svg" viewBox="0 0 264.76 29.96"><defs><style>.cls-1{fill:#252525;}.cls-2{fill:#db1339;}.cls-3{fill:none;}</style></defs><title>logo</title><g id="Layer_2" data-name="Layer 2"><g id="Layer_1-2" data-name="Layer 1"><path class="cls-1" d="M162.25,11.85h3.24v13h-3.24Z"/><path class="cls-1" d="M176,11.55a6.8,6.8,0,0,1,.52,13.6H176a6.8,6.8,0,1,1-.52-13.6Zm0,10.85a3.87,3.87,0,0,0,3.88-3.85q0-.1,0-.19a3.87,3.87,0,1,0-7.72,0,3.85,3.85,0,0,0,3.65,4H176Z"/><path class="cls-1" d="M186.94,14.6h-1.68V12H187V8.31h3.16V12h3V14.6h-3v5.08a2.31,2.31,0,0,0,2.57,2.44,2.61,2.61,0,0,0,.59,0v2.83a8.35,8.35,0,0,1-1,.08c-1.81,0-5.4-.54-5.4-4.89Z"/><path class="cls-1" d="M197.18,21.1a5.67,5.67,0,0,0,3.7,1.43c1.15,0,1.81-.48,1.81-1.3,0-2-6.44-1.53-6.44-5.78,0-2.55,2.24-3.9,5-3.9A6.66,6.66,0,0,1,205.58,13l-1.2,2.27a5.49,5.49,0,0,0-3.29-1.12c-1.12,0-1.81.43-1.81,1.25,0,2.06,6.44,1.48,6.44,5.73,0,2.29-1.94,4-4.92,4a7.42,7.42,0,0,1-5.08-1.87Z"/><path class="cls-1" d="M209.21,11.85h3v1a8.79,8.79,0,0,1,0,.92h0a4.76,4.76,0,0,1,4.18-2.19c3.52,0,5.75,2.78,5.75,6.8s-2.52,6.8-5.93,6.8a4.71,4.71,0,0,1-3.75-1.84h0a7.5,7.5,0,0,1,.08,1.12V30h-3.28Zm6.37,10.57c1.78,0,3.26-1.45,3.26-4s-1.33-4.08-3.21-4.08c-1.71,0-3.29,1.22-3.29,4.1C212.35,20.43,213.46,22.42,215.58,22.42Z"/><path class="cls-1" d="M225.59,6.75h3.22V20.31c0,1.43.48,1.78,1.33,1.78a3.51,3.51,0,0,0,.48,0v2.83a8.4,8.4,0,0,1-1,.08c-1.78,0-4-.46-4-4.18Z"/><path class="cls-1" d="M239.79,11.55a6.83,6.83,0,1,1-.21,0Zm0,10.85a3.87,3.87,0,0,0,3.91-3.82q0-.12,0-.23a3.87,3.87,0,1,0-7.72,0,3.85,3.85,0,0,0,3.64,4h.18Z"/><path class="cls-1" d="M250.39,11.85h3.24v13h-3.24Z"/><path class="cls-1" d="M258.39,14.6h-1.71V12h1.76V8.31h3.16V12h3V14.6h-3v5.08a2.31,2.31,0,0,0,2.57,2.45,2.6,2.6,0,0,0,.59,0V24.9a8.33,8.33,0,0,1-1,.08c-1.81,0-5.4-.54-5.4-4.89Z"/><path class="cls-2" d="M163.77,6a2.23,2.23,0,0,0-2.16,1.6h-4.43L154.4,4.8h-6.61V5.85H154l2.82,2.79h4.8A2.23,2.23,0,1,0,163.77,6Zm0,3.41a1.17,1.17,0,1,1,1.16-1.21,1.17,1.17,0,0,1-1.16,1.21Z"/><path class="cls-2" d="M252,6a2.23,2.23,0,1,0,2.24,2.23A2.23,2.23,0,0,0,252,6Zm0,3.41a1.17,1.17,0,1,1,1.17-1.17h0A1.17,1.17,0,0,1,252,9.35Z"/><path class="cls-2" d="M157.65,10.15a2.22,2.22,0,0,0-1.22.36L154.31,8.4h-6.52V9.47h6.09l1.83,1.83a2.21,2.21,0,0,0-.29,1.09,2.24,2.24,0,1,0,2.25-2.23h0Zm0,3.41a1.17,1.17,0,1,1,1.13-1.21v0A1.17,1.17,0,0,1,157.65,13.56Z"/><path class="cls-2" d="M158.45,4.46a2.23,2.23,0,1,0-2.12-2.9h-8.54V2.62h8.47A2.23,2.23,0,0,0,158.45,4.46Zm0-3.41a1.17,1.17,0,1,1-1.17,1.17A1.17,1.17,0,0,1,158.45,1Z"/><rect class="cls-3" x="147.42" y="0.1" height="1.4"/><rect class="cls-3" x="147.57" y="0.1" width="0.09" height="1.34"/><rect class="cls-3" x="146.92" y="0.1" width="0.46" height="1.4"/><rect class="cls-2" x="6.42" y="1.56" width="141.4" height="1.06"/><rect class="cls-2" y="4.8" width="148.05" height="1.06"/><rect class="cls-2" x="2.03" y="8.4" width="148.04" height="1.07"/></g></g></svg>