<svg xmlns="http://www.w3.org/2000/svg" xmlns:xlink="http://www.w3.org/1999/xlink" viewBox="0 0 768.13 277.76"><defs><style>.cls-1{fill:url(#Безымянный_градиент_6);}.cls-2{fill:#d2dbe4;}.cls-3{fill:#9aa3ac;}.cls-4{fill:#217ded;}.cls-5{fill:#fff;}</style><linearGradient id="Безымянный_градиент_6" x1="401.16" y1="22.78" x2="401.16" y2="255.6" gradientTransform="matrix(1, 0, 0, -1, 0, 279.82)" gradientUnits="userSpaceOnUse"><stop offset="0" stop-color="#fff" stop-opacity="0"/><stop offset="1" stop-color="#f8faff"/></linearGradient></defs><title>Ресурс 1</title><g id="Слой_2" data-name="Слой 2"><g id="lines"><path id="shadow" class="cls-1" d="M50.16,257l0-220.25L166,24.22l118,34.15L401.16,84.91l117,93,118-38,116,14,0,103Z"/><path id="_24.03" data-name=" 24.03" class="cls-2" d="M43.16,256.91h710v2h-710Zm5-253h2v260h-2Zm2,190h703v1h-703Zm0-64h703v1h-703Zm0-63h703v1h-703Zm0-63h703v1h-703Zm116,0h1v260h-1Zm117,0h1v260h-1Zm117,0h1v260h-1Zm117,0h1v260h-1Zm118,0h1v260h-1Zm117,0h1v260h-1Z"/><path id="_24.03_copy" data-name=" 24.03 copy" class="cls-3" d="M10.52,198.61h4.88v-1H13.55v-7.44H12.49l-2,2,.72.74.79-.77a2.45,2.45,0,0,0,.41-.49h0s0,.25,0,.52v5.47H10.52Zm9,.14c2.27,0,3-1.94,3-4.39s-.73-4.37-3-4.37-3,1.93-3,4.37.75,4.39,3,4.39Zm0-1.09c-1.38,0-1.77-1.44-1.77-3.3s.4-3.27,1.77-3.27,1.77,1.44,1.77,3.27-.38,3.3-1.78,3.3ZM27,198.75c2.27,0,3-1.94,3-4.39S29.23,190,27,190s-3,1.93-3,4.37.75,4.39,3,4.39Zm0-1.09c-1.38,0-1.77-1.44-1.77-3.3s.4-3.27,1.77-3.27,1.77,1.44,1.77,3.27-.38,3.3-1.78,3.3Zm7.46,1.09c2.27,0,3-1.94,3-4.39s-.73-4.37-3-4.37-3,1.93-3,4.37.74,4.39,3,4.39Zm0-1.09c-1.38,0-1.78-1.44-1.78-3.3s.4-3.27,1.78-3.27,1.78,1.44,1.78,3.27-.38,3.3-1.78,3.3ZM10.32,134.61h5.46v-1H11.56c0-1.93,4.09-2.36,4.09-5.15A2.44,2.44,0,0,0,13.22,126H13a3,3,0,0,0-2.69,1.61l.88.59a2.08,2.08,0,0,1,1.72-1.08,1.41,1.41,0,0,1,1.53,1.28s0,.08,0,.12c0,2-4.16,2.43-4.16,5.45A4.18,4.18,0,0,0,10.32,134.61Zm6.74-1a3.36,3.36,0,0,0,2.6,1.18,2.86,2.86,0,0,0,3-2.72s0-.08,0-.12a2.77,2.77,0,0,0-2.76-2.78h-.19a2.83,2.83,0,0,0-1.1.25h0a2.58,2.58,0,0,0,.07-.43l.19-1.79H22.1v-1H17.82l-.42,4.2.7.25a2.68,2.68,0,0,1,1.43-.42,1.78,1.78,0,0,1,1.91,1.64s0,.07,0,.1a1.75,1.75,0,0,1-1.77,1.72H19.6a2.38,2.38,0,0,1-1.86-.91Zm9.9,1.18c2.27,0,3-1.94,3-4.39S29.23,126,27,126s-3,1.93-3,4.37.74,4.39,3,4.39Zm0-1.09c-1.38,0-1.77-1.44-1.77-3.3s.4-3.27,1.77-3.27,1.77,1.44,1.77,3.27-.39,3.3-1.78,3.3Zm7.46,1.09c2.27,0,3-1.94,3-4.39s-.73-4.37-3-4.37-3,1.93-3,4.37.74,4.39,3,4.39Zm0-1.09c-1.38,0-1.78-1.44-1.78-3.3s.4-3.27,1.78-3.27,1.78,1.44,1.78,3.27-.39,3.3-1.78,3.3ZM9.6,70.58a3.37,3.37,0,0,0,2.6,1.18,2.86,2.86,0,0,0,3-2.72s0-.08,0-.12a2.77,2.77,0,0,0-2.76-2.78h-.19a2.82,2.82,0,0,0-1.1.25h0a2.58,2.58,0,0,0,.07-.43l.19-1.79h3.25v-1H10.36l-.42,4.2.7.25a2.69,2.69,0,0,1,1.43-.42A1.78,1.78,0,0,1,14,68.81s0,.07,0,.1a1.75,1.75,0,0,1-1.77,1.72h-.07a2.38,2.38,0,0,1-1.86-.91Zm9.9,1.18c2.27,0,3-1.94,3-4.39S21.77,63,19.5,63s-3,1.93-3,4.37.74,4.39,3,4.39Zm0-1.09c-1.38,0-1.77-1.44-1.77-3.3s.4-3.27,1.77-3.27,1.77,1.44,1.77,3.27-.39,3.3-1.78,3.3ZM27,71.76c2.27,0,3-1.94,3-4.39S29.23,63,27,63s-3,1.93-3,4.37S24.71,71.76,27,71.76Zm0-1.09c-1.38,0-1.77-1.44-1.77-3.3s.4-3.27,1.77-3.27,1.77,1.44,1.77,3.27S28.35,70.67,27,70.66Zm7.46,1.09c2.27,0,3-1.94,3-4.39s-.73-4.37-3-4.37-3,1.93-3,4.37.75,4.39,3,4.39Zm0-1.09c-1.38,0-1.78-1.44-1.78-3.3s.4-3.27,1.78-3.27,1.78,1.44,1.78,3.27-.38,3.3-1.77,3.3ZM.06,8.61H4.94v-1H3.08V.15H2l-2,2,.72.75.79-.77a2.45,2.45,0,0,0,.41-.49h0s0,.25,0,.51V7.58H.06Zm9,.15c2.27,0,3-1.94,3-4.39S11.3,0,9,0,6,1.93,6,4.37,6.78,8.76,9,8.76ZM9,7.66c-1.37,0-1.77-1.44-1.77-3.3S7.66,1.09,9,1.09s1.77,1.44,1.77,3.27S10.43,7.67,9,7.66ZM19.5,8.76c2.27,0,3-1.94,3-4.39S21.77,0,19.5,0s-3,1.93-3,4.37S17.24,8.76,19.5,8.76Zm0-1.09c-1.38,0-1.77-1.44-1.77-3.3s.4-3.27,1.77-3.27,1.77,1.44,1.77,3.27S20.89,7.67,19.5,7.66ZM27,8.76c2.27,0,3-1.94,3-4.39S29.23,0,27,0s-3,1.93-3,4.37S24.71,8.76,27,8.76Zm0-1.09c-1.38,0-1.77-1.44-1.77-3.3s.4-3.27,1.77-3.27,1.77,1.44,1.77,3.27S28.35,7.67,27,7.66Zm7.46,1.09c2.27,0,3-1.94,3-4.39S36.69,0,34.42,0s-3,1.93-3,4.37.75,4.39,3,4.39Zm0-1.09c-1.38,0-1.78-1.44-1.78-3.3s.4-3.27,1.78-3.27S36.2,2.53,36.2,4.37s-.38,3.3-1.77,3.3Zm.46,269.94h5.46v-1H36.12c0-1.93,4.09-2.36,4.09-5.14A2.44,2.44,0,0,0,37.77,269h-.23a3,3,0,0,0-2.68,1.61l.88.59a2.08,2.08,0,0,1,1.72-1.08A1.41,1.41,0,0,1,39,271.4s0,.08,0,.12c0,2-4.16,2.43-4.16,5.45A4.18,4.18,0,0,0,34.88,277.61Zm6.84,0H46.6v-1H44.74v-7.44H43.69l-2,2,.72.74.79-.77a2.45,2.45,0,0,0,.41-.49h0s0,.25,0,.52v5.47H41.72Zm6.08,0h1.25v-1.26H47.8Zm5.82.14c2.27,0,3-1.94,3-4.39s-.73-4.37-3-4.37-3,1.93-3,4.37.74,4.39,3,4.39Zm0-1.09c-1.38,0-1.78-1.44-1.78-3.3s.4-3.27,1.78-3.27,1.78,1.44,1.78,3.27-.38,3.3-1.78,3.3Zm4.26-.06a3.88,3.88,0,0,0,2.75,1.15,2.74,2.74,0,0,0,2.88-2.6s0-.07,0-.11A2.53,2.53,0,0,0,61,272.56l2.3-2.66v-.76H58.27v1h2.87a5.66,5.66,0,0,0,.72,0v0a3.83,3.83,0,0,0-.53.55l-1.85,2.17.28.64h.57a1.71,1.71,0,0,1,2,1.41s0,.1,0,.15a1.62,1.62,0,0,1-1.69,1.55h0a2.94,2.94,0,0,1-2.05-.92Zm94,1h5.46v-1h-4.22c0-1.93,4.09-2.36,4.09-5.14a2.44,2.44,0,0,0-2.43-2.45h-.23a3,3,0,0,0-2.69,1.61l.88.59a2.08,2.08,0,0,1,1.72-1.08A1.41,1.41,0,0,1,156,271.4s0,.08,0,.12c0,2-4.16,2.43-4.16,5.45a4.18,4.18,0,0,0,.06.65Zm6.84,0h4.88v-1h-1.86v-7.44h-1.05l-2,2,.72.74.79-.77a2.45,2.45,0,0,0,.41-.49h0s0,.25,0,.52v5.47h-1.87v1Zm6.08,0h1.25v-1.26h-1.25Zm5.82.14c2.27,0,3-1.94,3-4.39s-.73-4.37-3-4.37-3,1.93-3,4.37.74,4.39,3,4.39Zm0-1.09c-1.38,0-1.77-1.44-1.77-3.3s.4-3.27,1.77-3.27,1.77,1.44,1.77,3.27-.39,3.3-1.78,3.3Zm4.26-.06a3.88,3.88,0,0,0,2.75,1.15,2.74,2.74,0,0,0,2.88-2.6s0-.07,0-.11a2.53,2.53,0,0,0-2.48-2.48l2.3-2.66v-.76h-5.06v1h2.87a5.64,5.64,0,0,0,.72,0v0a3.87,3.87,0,0,0-.53.55l-1.85,2.17.28.64h.57a1.71,1.71,0,0,1,2,1.41s0,.1,0,.15a1.62,1.62,0,0,1-1.69,1.55h0a2.94,2.94,0,0,1-2.05-.92Zm94.52,1h5.45v-1h-4.22c0-1.93,4.09-2.36,4.09-5.14a2.44,2.44,0,0,0-2.44-2.45h-.23a3,3,0,0,0-2.69,1.61l.88.59a2.08,2.08,0,0,1,1.71-1.08,1.41,1.41,0,0,1,1.53,1.28s0,.08,0,.12c0,2-4.16,2.43-4.16,5.45a4.18,4.18,0,0,0,.06.65Zm6.88,0h5.46v-1h-4.22c0-1.93,4.09-2.36,4.09-5.14a2.44,2.44,0,0,0-2.44-2.45h-.23a3,3,0,0,0-2.69,1.61l.88.59a2.08,2.08,0,0,1,1.71-1.08,1.41,1.41,0,0,1,1.53,1.28s0,.08,0,.12c0,2-4.16,2.43-4.16,5.45a4.18,4.18,0,0,0,.06.65Zm7,0h1.25v-1.26h-1.25Zm5.82.14c2.27,0,3-1.94,3-4.39s-.73-4.37-3-4.37-3,1.93-3,4.37.74,4.39,3,4.39Zm0-1.09c-1.38,0-1.77-1.44-1.77-3.3s.4-3.27,1.77-3.27,1.77,1.44,1.77,3.27-.39,3.3-1.78,3.3Zm4.26-.06a3.88,3.88,0,0,0,2.75,1.15,2.74,2.74,0,0,0,2.88-2.6s0-.07,0-.11a2.53,2.53,0,0,0-2.48-2.48l2.3-2.66v-.76h-5.06v1h2.87a5.64,5.64,0,0,0,.72,0v0a3.87,3.87,0,0,0-.53.55L295,272.88l.28.64h.58a1.71,1.71,0,0,1,2,1.41s0,.1,0,.15a1.62,1.62,0,0,1-1.69,1.55h0a2.94,2.94,0,0,1-2.05-.92Zm93,1h5.45v-1h-4.22c0-1.93,4.09-2.36,4.09-5.14a2.44,2.44,0,0,0-2.44-2.45h-.23a3,3,0,0,0-2.69,1.61l.88.59a2.08,2.08,0,0,1,1.71-1.08,1.41,1.41,0,0,1,1.53,1.28s0,.08,0,.12c0,2-4.16,2.43-4.16,5.45a4.18,4.18,0,0,0,.06.65Zm6.88,0h5.46v-1h-4.22c0-1.93,4.09-2.36,4.09-5.14a2.44,2.44,0,0,0-2.44-2.45H396a3,3,0,0,0-2.69,1.61l.88.59a2.08,2.08,0,0,1,1.71-1.08,1.41,1.41,0,0,1,1.53,1.28s0,.08,0,.12c0,2-4.16,2.43-4.16,5.45a4.18,4.18,0,0,0,.06.65Zm7,0h1.25v-1.26h-1.25Zm5.82.14c2.27,0,3-1.94,3-4.39s-.73-4.37-3-4.37-3,1.93-3,4.37.73,4.39,3,4.39Zm0-1.09c-1.38,0-1.77-1.44-1.77-3.3s.4-3.27,1.77-3.27,1.77,1.44,1.77,3.27-.4,3.3-1.79,3.3Zm4.26-.06a3.88,3.88,0,0,0,2.75,1.15,2.74,2.74,0,0,0,2.88-2.6s0-.07,0-.11a2.53,2.53,0,0,0-2.48-2.48l2.3-2.66v-.76h-5.06v1h2.87a5.64,5.64,0,0,0,.72,0v0a3.87,3.87,0,0,0-.53.55L412,272.88l.28.64h.58a1.71,1.71,0,0,1,2,1.41s0,.1,0,.15a1.62,1.62,0,0,1-1.69,1.55h0a2.94,2.94,0,0,1-2.05-.92Zm93.08,1h5.46v-1h-4.22c0-1.93,4.09-2.36,4.09-5.14a2.44,2.44,0,0,0-2.43-2.45h-.23a3,3,0,0,0-2.69,1.61l.88.59a2.08,2.08,0,0,1,1.72-1.08,1.41,1.41,0,0,1,1.53,1.28s0,.08,0,.12c0,2-4.16,2.43-4.16,5.45a4.18,4.18,0,0,0,0,.65Zm6.68-1a3.88,3.88,0,0,0,2.75,1.15,2.74,2.74,0,0,0,2.87-2.6s0-.07,0-.11a2.53,2.53,0,0,0-2.48-2.48l2.3-2.66v-.76h-5.07v1h2.87a5.66,5.66,0,0,0,.72,0v0a3.84,3.84,0,0,0-.53.55l-1.85,2.17.28.64h.58a1.71,1.71,0,0,1,2,1.41s0,.1,0,.14a1.62,1.62,0,0,1-1.69,1.55h0a2.94,2.94,0,0,1-2.05-.92Zm7.12,1h1.25v-1.26h-1.25Zm5.82.14c2.27,0,3-1.94,3-4.39s-.73-4.37-3-4.37-3,1.93-3,4.37.73,4.39,3,4.39Zm0-1.09c-1.38,0-1.78-1.44-1.78-3.3s.4-3.27,1.78-3.27,1.78,1.44,1.78,3.27-.4,3.3-1.79,3.3Zm4.26-.06a3.88,3.88,0,0,0,2.75,1.15,2.74,2.74,0,0,0,2.88-2.6s0-.07,0-.11a2.53,2.53,0,0,0-2.48-2.48l2.3-2.66v-.76h-5.06v1h2.87a5.64,5.64,0,0,0,.72,0v0a3.87,3.87,0,0,0-.53.55l-1.85,2.17.28.64h.58a1.71,1.71,0,0,1,2,1.41s0,.1,0,.15a1.62,1.62,0,0,1-1.69,1.55h0a2.94,2.94,0,0,1-2.05-.92Zm94.12,1h5.46v-1h-4.22c0-1.93,4.09-2.36,4.09-5.14a2.44,2.44,0,0,0-2.43-2.45h-.23a3,3,0,0,0-2.69,1.61l.88.59a2.08,2.08,0,0,1,1.72-1.08,1.41,1.41,0,0,1,1.53,1.28s0,.08,0,.12c0,2-4.16,2.43-4.16,5.45a4.18,4.18,0,0,0,0,.65Zm6.68-1a3.88,3.88,0,0,0,2.75,1.15,2.74,2.74,0,0,0,2.87-2.6s0-.07,0-.11a2.53,2.53,0,0,0-2.48-2.48l2.3-2.66v-.76h-5.07v1h2.87a5.66,5.66,0,0,0,.72,0v0a3.84,3.84,0,0,0-.53.55l-1.85,2.17.28.64h.58a1.71,1.71,0,0,1,2,1.41s0,.1,0,.14a1.62,1.62,0,0,1-1.69,1.55h0a2.94,2.94,0,0,1-2.05-.92Zm7.12,1h1.25v-1.26h-1.25Zm5.82.14c2.27,0,3-1.94,3-4.39s-.73-4.37-3-4.37-3,1.93-3,4.37.73,4.39,3,4.39Zm0-1.09c-1.38,0-1.78-1.44-1.78-3.3s.4-3.27,1.78-3.27,1.78,1.44,1.78,3.27-.4,3.3-1.79,3.3Zm4.26-.06a3.88,3.88,0,0,0,2.75,1.15,2.74,2.74,0,0,0,2.88-2.6s0-.07,0-.11a2.53,2.53,0,0,0-2.48-2.48l2.3-2.66v-.76h-5.06v1h2.87a5.64,5.64,0,0,0,.72,0v0a3.87,3.87,0,0,0-.53.55l-1.85,2.17.28.64h.58a1.71,1.71,0,0,1,2,1.41s0,.1,0,.15a1.62,1.62,0,0,1-1.69,1.55h0a2.94,2.94,0,0,1-2.05-.92Zm92.93,1h5.46v-1h-4.22c0-1.93,4.09-2.36,4.09-5.14a2.44,2.44,0,0,0-2.44-2.45h-.23a3,3,0,0,0-2.69,1.61l.88.59a2.08,2.08,0,0,1,1.72-1.08,1.41,1.41,0,0,1,1.53,1.28s0,.08,0,.12c0,2-4.16,2.43-4.16,5.45A4.17,4.17,0,0,0,738.26,277.61Zm6.41-2.27h4.1v2.27h1.16v-2.27h1.15v-1h-1.15v-5.2h-1.34l-3.92,5.46v.74Zm1.31-1v0l2.4-3.21a4.65,4.65,0,0,0,.42-.71h0s0,.46,0,.85v3.09H746Zm6.45,3.26h1.25v-1.26h-1.25v1.26Zm5.82.14c2.27,0,3-1.94,3-4.39s-.73-4.37-3-4.37-3,1.93-3,4.37.75,4.4,3,4.4Zm0-1.09c-1.38,0-1.78-1.44-1.78-3.3s.4-3.27,1.78-3.27,1.78,1.44,1.78,3.27-.38,3.31-1.77,3.31Zm4.26-.06a3.88,3.88,0,0,0,2.75,1.15,2.74,2.74,0,0,0,2.88-2.6s0-.07,0-.11a2.53,2.53,0,0,0-2.48-2.48l2.3-2.66v-.76h-5.06v1h2.87a5.64,5.64,0,0,0,.72,0v0a3.87,3.87,0,0,0-.53.55l-1.85,2.17.28.64h.58a1.71,1.71,0,0,1,2,1.41s0,.1,0,.15a1.62,1.62,0,0,1-1.69,1.55h0a2.94,2.94,0,0,1-2.05-.92Z"/><path class="cls-4" d="M49.22,37.41l-.12-1,117-13,.12,1Z"/><path class="cls-4" d="M164.35,24.2l.29-1L284.3,57.43l-.29,1Z"/><path class="cls-4" d="M283.07,58.4l.17-1,118,27-.17,1Z"/><path class="cls-4" d="M400.83,85.28l.67-.75,117,93-.66.74Z"/><path class="cls-4" d="M517.31,178.38l-.3-1,119-38,.3,1Z"/><path class="cls-4" d="M635.1,140.41l.12-1,118,14-.12,1Z"/><circle id="white" class="cls-5" cx="49.66" cy="36.41" r="4.5"/><path class="cls-4" d="M49.66,31.91a4.5,4.5,0,1,0,4.5,4.5A4.5,4.5,0,0,0,49.66,31.91Zm0,7a2.5,2.5,0,1,1,2.5-2.5A2.5,2.5,0,0,1,49.66,38.91Z"/><circle id="white_copy" data-name="white copy" class="cls-5" cx="166.66" cy="23.41" r="4.5"/><circle id="white_copy_2" data-name="white copy 2" class="cls-5" cx="283.66" cy="58.41" r="4.5"/><circle id="white_copy_3" data-name="white copy 3" class="cls-5" cx="400.66" cy="84.41" r="4.5"/><circle id="white_copy_4" data-name="white copy 4" class="cls-5" cx="517.66" cy="177.41" r="4.5"/><circle id="white_copy_5" data-name="white copy 5" class="cls-5" cx="635.66" cy="140.41" r="4.5"/><circle id="white_copy_6" data-name="white copy 6" class="cls-5" cx="752.66" cy="153.41" r="4.5"/><path class="cls-4" d="M166.69,18.9a4.5,4.5,0,1,0,4.5,4.5A4.5,4.5,0,0,0,166.69,18.9Zm0,7a2.5,2.5,0,1,1,2.5-2.5A2.5,2.5,0,0,1,166.69,25.9Z"/><path class="cls-4" d="M283.62,53.87a4.5,4.5,0,1,0,4.5,4.5A4.5,4.5,0,0,0,283.62,53.87Zm0,7a2.5,2.5,0,1,1,2.5-2.5A2.5,2.5,0,0,1,283.62,60.87Z"/><path class="cls-4" d="M400.66,79.91a4.5,4.5,0,1,0,4.5,4.5A4.5,4.5,0,0,0,400.66,79.91Zm0,7a2.5,2.5,0,1,1,2.5-2.5A2.5,2.5,0,0,1,400.66,86.91Z"/><path class="cls-4" d="M517.68,172.91a4.5,4.5,0,1,0,4.5,4.5A4.5,4.5,0,0,0,517.68,172.91Zm0,7a2.5,2.5,0,1,1,2.5-2.5A2.5,2.5,0,0,1,517.68,179.91Z"/><path class="cls-4" d="M635.68,136a4.5,4.5,0,1,0,4.5,4.5A4.5,4.5,0,0,0,635.68,136Zm0,7a2.5,2.5,0,1,1,2.5-2.5A2.5,2.5,0,0,1,635.68,143Z"/><path class="cls-4" d="M752.66,149a4.5,4.5,0,1,0,4.5,4.5A4.5,4.5,0,0,0,752.66,149Zm0,7a2.5,2.5,0,1,1,2.5-2.5A2.5,2.5,0,0,1,752.66,156Z"/></g></g></svg>