<svg xmlns="http://www.w3.org/2000/svg" width="40" height="40" viewBox="0 0 40 40"><defs><style>.cls-1 { fill: #db1339; fill-rule: evenodd; }</style></defs><path id="error-2" class="cls-1" d="M310 10a20 20 0 1 0 20.007 20 20.015 20.015 0 0 0-20.007-20zm0 1.818a18.178 18.178 0 1 1-18.188 18.179 18.169 18.169 0 0 1 18.188-18.182zm-1.08 8.464a.321.321 0 0 0-.369.341v12.27a.341.341 0 0 0 .369.369h2.08a.342.342 0 0 0 .369-.369v-12.273a.32.32 0 0 0-.369-.34h-2.075zm0 16.36a.321.321 0 0 0-.369.341v2.386a.319.319 0 0 0 .369.341h2.16a.321.321 0 0 0 .369-.341v-2.388a.32.32 0 0 0-.369-.341h-2.16z" transform="translate(-290 -10)"/></svg>