<svg xmlns="http://www.w3.org/2000/svg" width="22" height="12" viewBox="0 0 22 12">
  <metadata><?xpacket begin="﻿" id="W5M0MpCehiHzreSzNTczkc9d"?>
<x:xmpmeta xmlns:x="adobe:ns:meta/" x:xmptk="Adobe XMP Core 5.6-c138 79.159824, 2016/09/14-01:09:01        ">
   <rdf:RDF xmlns:rdf="http://www.w3.org/1999/02/22-rdf-syntax-ns#">
      <rdf:Description rdf:about=""/>
   </rdf:RDF>
</x:xmpmeta>
                                                                                                    
                                                                                                    
                                                                                                    
                                                                                                    
                                                                                                    
                                                                                                    
                                                                                                    
                                                                                                    
                                                                                                    
                                                                                                    
                                                                                                    
                                                                                                    
                                                                                                    
                                                                                                    
                                                                                                    
                                                                                                    
                                                                                                    
                                                                                                    
                                                                                                    
                                                                                                    
                           
<?xpacket end="w"?></metadata>
<defs>
    <style>
      .cls-1 {
        fill: #217ded;
        fill-rule: evenodd;
      }
    </style>
  </defs>
  <path id="eye" class="cls-1" d="M3799.99,788c-5.97,0-10.57,5.507-10.57,5.507l-0.43.493,0.43,0.492s4.19,5,9.77,5.46a6.032,6.032,0,0,0,.8.047,6.184,6.184,0,0,0,.81-0.047c5.57-.461,9.77-5.46,9.77-5.46l0.42-.492-0.42-.493S3805.97,788,3799.99,788Zm0,1.5a9.988,9.988,0,0,1,4.3,1.054,5.316,5.316,0,0,1,.72,2.7,5.163,5.163,0,0,1-4.46,5.226c-0.01,0-.03,0-0.04,0-0.17.009-.34,0.023-0.52,0.023s-0.37-.012-0.56-0.023a5.172,5.172,0,0,1-4.46-5.226,5.437,5.437,0,0,1,.7-2.672h-0.02A9.988,9.988,0,0,1,3799.99,789.5Zm0,1.5a2.252,2.252,0,1,0,2.15,2.25A2.2,2.2,0,0,0,3799.99,791Zm-6.27.7a7.171,7.171,0,0,0-.18,1.547,6.9,6.9,0,0,0,.99,3.585,17,17,0,0,1-3.48-2.835A17.807,17.807,0,0,1,3793.72,791.705Zm12.54,0a17.28,17.28,0,0,1,2.67,2.3,16.839,16.839,0,0,1-3.47,2.835,6.986,6.986,0,0,0,.98-3.585A6.571,6.571,0,0,0,3806.26,791.705Z" transform="translate(-3789 -788)"/>
</svg>
