<svg xmlns="http://www.w3.org/2000/svg" id="img" width="498" height="497" viewBox="0 0 498 497">
  <defs>
    <style>
      .cls-1 { fill: #fff; filter: url(#filter); } .cls-1, .cls-2, .cls-3, .cls-4, .cls-5 { fill-rule: evenodd; } .cls-2 { fill: #25c810; } .cls-3 { fill: #151a1f; } .cls-4 { fill: #db1339; } .cls-5 { fill: #217ded; }
    </style>
    <filter id="filter" width="490" height="489" x="5" y="4" filterUnits="userSpaceOnUse">
      <feOffset result="offset" in="SourceAlpha"/>
      <feGaussianBlur result="blur" stdDeviation="5.099"/>
      <feFlood result="flood" flood-color="#0073ff" flood-opacity=".07"/>
      <feComposite result="composite" operator="in" in2="blur"/>
      <feBlend result="blend" in="SourceGraphic"/>
    </filter>
  </defs>
  <path id="Ellipse_1_copy_3" d="M468.28 345.47a43.648 43.648 0 0 1-58.932 40.922A198.166 198.166 0 0 1 92.8 389.726a43.68 43.68 0 1 1-36.837-79.2A198.9 198.9 0 0 1 207.023 74.37c-.006-.3-.023-.6-.023-.9a43.64 43.64 0 1 1 87.28 0c0 .42-.02.84-.03 1.258a198.91 198.91 0 0 1 150.227 231.83 43.68 43.68 0 0 1 23.804 38.91z" data-name="Ellipse 1 copy 3" class="cls-1"/>
  <path id="reload" d="M250.448 250.03a18.95 18.95 0 0 0-18.878 18.987.944.944 0 1 0 1.888.027v-.027a16.965 16.965 0 0 1 31.108-9.494H258a.95.95 0 0 0-.027 1.9h9.466v-9.5a.947.947 0 0 0-.94-.962h-.03a.947.947 0 0 0-.93.97v5.71a18.82 18.82 0 0 0-15.104-7.6zm17.92 18.025a.946.946 0 0 0-.93.962 16.966 16.966 0 0 1-31.107 9.5h6.57a.95.95 0 0 0 .03-1.9h-8.1a.934.934 0 0 0-.36 0h-1v9.494a.944.944 0 1 0 1.89.03v-5.74a18.85 18.85 0 0 0 33.98-11.38.946.946 0 0 0-.93-.96h-.03z" class="cls-2"/>
  <path id="search" d="M246.53 56.476a12.822 12.822 0 0 0 0 25.64 12.337 12.337 0 0 0 7.348-2.428l9.73 9.9 2.08-2.12-9.614-9.828a12.912 12.912 0 0 0 3.026-8.34 12.71 12.71 0 0 0-12.57-12.824zm0 1.508A11.314 11.314 0 1 1 235.434 69.3a11.194 11.194 0 0 1 11.094-11.316z" class="cls-3"/>
  <path id="error" d="M424.247 323.978a.745.745 0 0 0-.532.365l-17.763 30.34a.725.725 0 0 0 .27 1 .755.755 0 0 0 .378.1h35.526a.735.735 0 0 0 .747-.725.724.724 0 0 0-.1-.37l-17.763-30.34a.747.747 0 0 0-.763-.37zm.116 2.19l16.468 28.15H407.9zm-.856 9.1a.232.232 0 0 0-.254.25v10.562a.25.25 0 0 0 .254.274h1.712a.25.25 0 0 0 .25-.274v-10.56a.232.232 0 0 0-.26-.25h-1.71zm-.162 13.185a.244.244 0 0 0-.14.25v1.917a.233.233 0 0 0 .256.25h1.8a.232.232 0 0 0 .26-.25v-1.916a.232.232 0 0 0-.25-.25h-1.8a.347.347 0 0 0-.113 0z" class="cls-4"/>
  <path id="report" d="M60.42 331.955v34.436h26.433v-25l-.207-.23-8.81-8.983-.23-.21H60.418zm1.468 1.5h14.685v8.983h8.81v22.46h-23.5V333.45zm16.154 1.076l6.287 6.41h-6.29v-6.41z" class="cls-5"/>
</svg>