<svg xmlns="http://www.w3.org/2000/svg" width="18" height="18" viewBox="0 0 18 18">
  <metadata><?xpacket begin="﻿" id="W5M0MpCehiHzreSzNTczkc9d"?>
<x:xmpmeta xmlns:x="adobe:ns:meta/" x:xmptk="Adobe XMP Core 5.6-c138 79.159824, 2016/09/14-01:09:01        ">
   <rdf:RDF xmlns:rdf="http://www.w3.org/1999/02/22-rdf-syntax-ns#">
      <rdf:Description rdf:about=""/>
   </rdf:RDF>
</x:xmpmeta>
                                                                                                    
                                                                                                    
                                                                                                    
                                                                                                    
                                                                                                    
                                                                                                    
                                                                                                    
                                                                                                    
                                                                                                    
                                                                                                    
                                                                                                    
                                                                                                    
                                                                                                    
                                                                                                    
                                                                                                    
                                                                                                    
                                                                                                    
                                                                                                    
                                                                                                    
                                                                                                    
                           
<?xpacket end="w"?></metadata>
<defs>
    <style>
      .cls-1 {
        fill-rule: evenodd;
      }
    </style>
  </defs>
  <path class="cls-1" d="M3981,785a9.016,9.016,0,0,0-9,8.5,0.894,0.894,0,0,0,.84.958,0.91,0.91,0,0,0,.96-0.839V793.6a7.216,7.216,0,0,1,12.44-4.55h-1.18a0.9,0.9,0,1,0-.03,1.8h2.85a0.9,0.9,0,0,0,.31,0h1.38v-4.5a0.9,0.9,0,0,0-.89-0.913h-0.02a0.9,0.9,0,0,0-.89.913v1.7A9.03,9.03,0,0,0,3981,785Zm8.13,8.54a0.914,0.914,0,0,0-.94.863h0a7.208,7.208,0,0,1-12.43,4.55h1.18a0.9,0.9,0,1,0,.02-1.8h-2.86a0.877,0.877,0,0,0-.28,0h-1.4v4.5a0.905,0.905,0,0,0,1.81.026v-1.726A9.022,9.022,0,0,0,3990,794.5a0.9,0.9,0,0,0-.84-0.961h-0.03Z" transform="translate(-3972 -785)"/>
</svg>
