<svg xmlns="http://www.w3.org/2000/svg" width="36" height="36" viewBox="0 0 16 16.031">
    <defs>
        <style>
            .cls-1 {
            fill: #25c810;
            fill-rule: evenodd;
            }
        </style>
    </defs>
    <path class="cls-1" d="M5912.04,502.982a8.008,8.008,0,1,0,0,16.015,7.96,7.96,0,0,0,7.97-7.207h-1.61a6.419,6.419,0,1,1-6.36-7.207,7,7,0,0,1,3.14.8l1.21-1.2A8.844,8.844,0,0,0,5912.04,502.982Zm6.84,2.3-7.49,7.132-2.97-2.953-1.13,1.126,3.55,3.528,0.55,0.551,0.58-.551,8.04-7.682Z" transform="translate(-5904 -502.969)"/>
</svg>
