<svg xmlns="http://www.w3.org/2000/svg" width="22" height="17" viewBox="0 0 22 17">
  <metadata><?xpacket begin="﻿" id="W5M0MpCehiHzreSzNTczkc9d"?>
<x:xmpmeta xmlns:x="adobe:ns:meta/" x:xmptk="Adobe XMP Core 5.6-c138 79.159824, 2016/09/14-01:09:01        ">
   <rdf:RDF xmlns:rdf="http://www.w3.org/1999/02/22-rdf-syntax-ns#">
      <rdf:Description rdf:about=""/>
   </rdf:RDF>
</x:xmpmeta>
                                                                                                    
                                                                                                    
                                                                                                    
                                                                                                    
                                                                                                    
                                                                                                    
                                                                                                    
                                                                                                    
                                                                                                    
                                                                                                    
                                                                                                    
                                                                                                    
                                                                                                    
                                                                                                    
                                                                                                    
                                                                                                    
                                                                                                    
                                                                                                    
                                                                                                    
                                                                                                    
                           
<?xpacket end="w"?></metadata>
<defs>
    <style>
      .cls-1 {
        fill: #fff;
        fill-rule: evenodd;
      }
    </style>
  </defs>
  <path id="icon-twitter" class="cls-1" d="M783,1090.01a9.671,9.671,0,0,1-2.593.68,4.337,4.337,0,0,0,1.985-2.37,9.58,9.58,0,0,1-2.866,1.04,4.6,4.6,0,0,0-3.294-1.36,4.406,4.406,0,0,0-4.514,4.29,4.134,4.134,0,0,0,.118.98,13.069,13.069,0,0,1-9.3-4.48,4.088,4.088,0,0,0-.611,2.15,4.262,4.262,0,0,0,2.008,3.58,4.8,4.8,0,0,1-2.044-.54v0.05a4.36,4.36,0,0,0,3.619,4.21,4.643,4.643,0,0,1-1.188.15,4.758,4.758,0,0,1-.851-0.08,4.484,4.484,0,0,0,4.216,2.98,9.357,9.357,0,0,1-5.6,1.84,9.515,9.515,0,0,1-1.076-.06,13.232,13.232,0,0,0,6.918,1.93,12.432,12.432,0,0,0,12.842-12.21c0-.19,0-0.37-0.013-0.56A8.864,8.864,0,0,0,783,1090.01Z" transform="translate(-761 -1088)"/>
</svg>
