<svg xmlns="http://www.w3.org/2000/svg" viewBox="0 0 32 32.01"><title>icon-github</title><g id="Layer_2" data-name="Layer 2"><g id="Capa_1" data-name="Capa 1"><path d="M18.07,27.52c.86.94.34,2.9.38,4.48h-.51C17.87,30.55,18.12,28.84,18.07,27.52ZM6,20.66c-.8-2.52-.53-6.51,1.22-8A5.47,5.47,0,0,1,7.5,8.39a8,8,0,0,1,4.37,1.75,15.19,15.19,0,0,1,5.21-.53c.88.05,1.79.44,2.45.38s1.36-.79,2-1.06A6.12,6.12,0,0,1,24,8.39a6,6,0,0,1,.31,4c1.78,1.52,2.39,5.21,1.53,8.23,2,.15,4.35,0,6.19.34V0H0V20.94A36,36,0,0,1,6,20.66Zm19.61.69a45.12,45.12,0,0,1,6.42.83V21.09a26.17,26.17,0,0,0-5.35-.35C26.2,20.77,25.54,20.72,25.58,21.35ZM14,27.52c-.94.72-.31,2.83-.38,4.48h.46A42.16,42.16,0,0,1,14,27.52ZM3.82,20.74c-1.2.06-2.62.18-3.82.33v1.14a29.22,29.22,0,0,1,6.35-.78C6.18,20.42,4.73,20.7,3.82,20.74Zm21.75.77c-1.14,2.24-3.43,3.35-6.59,3.58.34.74,1,1,1.15,2.21.19,1.43-.16,3.38,0,4.71H32V22.28A44.48,44.48,0,0,0,25.58,21.5ZM11.86,29.35c-2.2.44-3.91-.06-4.75-1.45A15,15,0,0,0,6.2,26c-.45-.55-1.17-.62-1.38-1.37,2.73-.66,2.83,2.81,5.28,2.9a6,6,0,0,0,1.84-.38,3.23,3.23,0,0,1,1.23-2c-3.05-.42-5.57-1.37-6.74-3.66A42.2,42.2,0,0,0,0,22.31V32H11.9C11.94,31.22,11.76,30.29,11.86,29.35ZM16.27,32a39.69,39.69,0,0,0-.19-4.71c-.54,0-.31.81-.31,1.15,0,1.13.08,2.43,0,3.56h.49Z"/></g></g></svg>