<svg xmlns="http://www.w3.org/2000/svg" width="22" height="22" viewBox="0 0 22 22">
  <metadata><?xpacket begin="﻿" id="W5M0MpCehiHzreSzNTczkc9d"?>
<x:xmpmeta xmlns:x="adobe:ns:meta/" x:xmptk="Adobe XMP Core 5.6-c138 79.159824, 2016/09/14-01:09:01        ">
   <rdf:RDF xmlns:rdf="http://www.w3.org/1999/02/22-rdf-syntax-ns#">
      <rdf:Description rdf:about=""/>
   </rdf:RDF>
</x:xmpmeta>
                                                                                                    
                                                                                                    
                                                                                                    
                                                                                                    
                                                                                                    
                                                                                                    
                                                                                                    
                                                                                                    
                                                                                                    
                                                                                                    
                                                                                                    
                                                                                                    
                                                                                                    
                                                                                                    
                                                                                                    
                                                                                                    
                                                                                                    
                                                                                                    
                                                                                                    
                                                                                                    
                           
<?xpacket end="w"?></metadata>
<defs>
    <style>
      .cls-1 {
        fill: #fff;
        fill-rule: evenodd;
      }
    </style>
  </defs>
  <path id="icon-github" class="cls-1" d="M726.965,1086A11.123,11.123,0,0,0,716,1097.27a11.367,11.367,0,0,0,7.465,10.73,0.58,0.58,0,0,0,.74-0.56v-1.93c-3.026.69-3.7-1.53-3.7-1.53a2.859,2.859,0,0,0-1.21-1.66c-1.009-.69.067-0.69,0.067-0.69a2.354,2.354,0,0,1,1.681,1.18,2.3,2.3,0,0,0,3.161.97,2.474,2.474,0,0,1,.672-1.53c-2.421-.27-4.976-1.24-4.976-5.6a4.355,4.355,0,0,1,1.143-3.04,4.22,4.22,0,0,1,.135-2.91s0.941-.28,3.026,1.18a9.048,9.048,0,0,1,2.757-.35,11.925,11.925,0,0,1,2.758.35c2.084-1.46,3.026-1.18,3.026-1.18a4.462,4.462,0,0,1,.134,2.98,4.522,4.522,0,0,1,1.144,3.04c0,4.36-2.556,5.26-4.977,5.53a2.7,2.7,0,0,1,.74,2.08v3.11a0.58,0.58,0,0,0,.74.56A11.344,11.344,0,0,0,726.965,1086Z" transform="translate(-716 -1086)"/>
</svg>
