<?xml version="1.0" encoding="utf-8"?>
<!-- Generator: Adobe Illustrator 21.0.0, SVG Export Plug-In . SVG Version: 6.00 Build 0)  -->
<svg version="1.1" id="Слой_1" xmlns="http://www.w3.org/2000/svg" xmlns:xlink="http://www.w3.org/1999/xlink" x="0px" y="0px"
	width="40" height="40" viewBox="0 0 40 40" style="enable-background:new 0 0 40 40;" xml:space="preserve">
<style type="text/css">
	.st0{clip-path:url(#big_3_);}
	.st1{fill:none;stroke:#217DED;stroke-width:0.9656;}
	.st2{fill:none;stroke:#9EC7F8;stroke-width:0.9656;}
	.st3{fill:#217DED;}
	.st4{fill:#DB1339;}
</style>
<g>
	<defs>
		<circle id="big" cx="20" cy="20" r="19.3"/>
	</defs>
	<clipPath id="big_3_">
		<use xlink:href="#big"  style="overflow:visible;"/>
	</clipPath>
	<g id="big_1_" class="st0">
		<g>
			
				<image style="overflow:visible;" width="77.2" height="77.2" xlink:href="70C769BF.png"  transform="matrix(1 0 0 1 -18.6224 -18.6224)"/>
		</g>
	</g>
</g>
<circle id="big_2_" class="st1" cx="20" cy="20" r="19.3"/>
<circle id="menium_" class="st2" cx="20" cy="20" r="13.5"/>
<circle id="small" class="st2" cx="20" cy="20" r="7.7"/>
<path id="blue_dot" class="st3" d="M20,19c0.5,0,1,0.4,1,1s-0.4,1-1,1s-1-0.4-1-1S19.5,19,20,19z M4.1,7.4c1.3,0,2.4,1.1,2.4,2.4
	s-1.1,2.4-2.4,2.4s-2.4-1.1-2.4-2.4S2.7,7.4,4.1,7.4z M13.7,28.7c1.3,0,2.4,1.1,2.4,2.4c0,1.3-1.1,2.4-2.4,2.4s-2.4-1.1-2.4-2.4
	C11.3,29.8,12.4,28.7,13.7,28.7z"/>
<circle id="red_dot" class="st4" cx="33" cy="15.7" r="2.4"/>
</svg>
