<svg xmlns="http://www.w3.org/2000/svg" viewBox="0 0 1438.53 717.28"><defs><style>.cls-1{fill:#2e3541;}</style></defs><title>Ресурс 1</title><g id="Слой_2" data-name="Слой 2"><g id="DOTS"><path class="cls-1" d="M1433.56,707.18h-.12l-10-80.69a5,5,0,0,0,0-9.7l6.6-47,.27,0a5,5,0,0,0,.15-9.92l-6.43-120.31a4.94,4.94,0,0,0-.12-9.8l2.7-95.48a4.94,4.94,0,0,0,.23-9.84l2.8-149.63a5,5,0,0,0-.41-9.89h-.06l-10.81-95.75a5,5,0,0,0,.58-9.52l11.13-46.56a4.91,4.91,0,0,0,.66.07,5,5,0,1,0-5-5,4.92,4.92,0,0,0,.22,1.38L1379,28.5a4.95,4.95,0,0,0-9,.4l-69.53-21a5,5,0,1,0-9.84-1c0,.13,0,.25,0,.38L1184.13,26.46a4.94,4.94,0,0,0-9.5,0L1061.43,5.38c0-.14,0-.27,0-.41a5,5,0,1,0-9.94,0V5L943.79,16.37a5,5,0,0,0-9.73,0l-63.69-6.17a5,5,0,0,0-9.93,0c0,.06,0,.12,0,.19L690.38,34.1a4.94,4.94,0,0,0-9.51-.4L589.13,13a4.9,4.9,0,0,0,.06-.6,5,5,0,0,0-9.85-.82l-92.5-6.14a5,5,0,0,0-9.92.17c0,.08,0,.16,0,.24l-65.27,9.8A5,5,0,0,0,402,16L304,8.81a5,5,0,0,0-9.92.12l-87.87,8.64a5,5,0,0,0-9.74,0L83.54,5.82v0a5,5,0,0,0-9.89-.47L18,5.61A5,5,0,1,0,12.45,11L11.28,55.21a5,5,0,0,0,.4,9.9h0L25.82,196a5,5,0,0,0-.35,9.62L15.24,264.9c-.1,0-.19,0-.29,0a5,5,0,0,0-.05,9.93l10.5,108.64A4.95,4.95,0,0,0,25,393.1L5.29,510.73c-.11,0-.21,0-.32,0a5,5,0,1,0,0,9.94c.14,0,.26,0,.4,0L26,633.17a4.93,4.93,0,0,0-.68,9.13L12,680.82a4.9,4.9,0,0,0-.61-.06,5,5,0,1,0,4,7.9L54,710.33a5,5,0,1,0,9.52,2v0L163,702a5,5,0,0,0,9.76-.24l133.74,7.4a4.95,4.95,0,0,0,9.88.08l94-3.6a5,5,0,1,0,9.79-1.49l69.47-18.79a5,5,0,0,0,9.21.17l58.33,18a4.9,4.9,0,0,0-.07.67,5,5,0,0,0,9.94,0v0l113.69-16.89a4.94,4.94,0,0,0,9.57.1l141.34,23.93a4.9,4.9,0,0,0-.06.59,5,5,0,0,0,9.94,0c0-.13,0-.25,0-.37L955.92,700a5,5,0,0,0,9.74,0L1068.6,710s0,.07,0,.11a5,5,0,1,0,9.94,0c0-.11,0-.22,0-.33l81.41-11.68a5,5,0,0,0,9.64,0L1276,711.41c0,.08,0,.15,0,.23a5,5,0,0,0,9.93,0l72-5.37a5,5,0,0,0,9.71.12l60.95,5.77a5,5,0,1,0,5-5ZM13.45,11.06A4.94,4.94,0,0,0,18,6.61l55.66-.28a4.93,4.93,0,0,0,.78,2.21L31.15,43.65l-16,13a4.94,4.94,0,0,0-2.9-1.38l.94-35.14ZM1073.56,705.19a5,5,0,0,0-1,.1l-28.4-91.62a5,5,0,0,0,3-3.6L1165.46,622a4.93,4.93,0,0,0,1,2.94l-89.66,81.5A4.93,4.93,0,0,0,1073.56,705.19Zm-668-683.52-1.26,7.55-2.59,15.53c-.11,0-.21,0-.32,0A5,5,0,0,0,397,47.4L303.82,10.3a4.85,4.85,0,0,0,.13-.5l98,7.22A5,5,0,0,0,405.57,21.67Zm81.2-15.21,92.5,6.14a4.92,4.92,0,0,0,1.07,2.89L514.9,78.68a4.79,4.79,0,0,0-4.58-1.13L484.13,10A5,5,0,0,0,486.77,6.45Zm678.59,685.63,5.18-65.15a5,5,0,0,0,4.58-3.36l33.68,7.77,34.35,7.93a4.27,4.27,0,0,0,.54,2.9l-75.27,51.52A4.93,4.93,0,0,0,1165.36,692.08ZM961,694l-4.48-93.62a5,5,0,0,0,4.52-3.91l76.31,12.28c0,.09,0,.18,0,.28a4.93,4.93,0,0,0,1.25,3.27L963.73,695A4.92,4.92,0,0,0,961,694ZM832.92,708.57l-90.28-66.09a4.82,4.82,0,0,0,.38-4.3l78.57-36.61a4.94,4.94,0,0,0,4.06,2.81l8.72,93.19.89,9.56A4.94,4.94,0,0,0,832.92,708.57Zm-338.62-30a5,5,0,0,0-4.83,3.85L366.62,666.82s0-.09,0-.13a4.91,4.91,0,0,0-.26-1.53l133.07-58.63a5,5,0,0,0,3.23,2.41l-8.28,69.68ZM142.95,640.67,62,708.76a4.94,4.94,0,0,0-2.58-1.32l6.25-80.5h.05a5,5,0,0,0,4.72-3.51L98,628.81l44.14,8.61c0,.15,0,.3,0,.45A4.94,4.94,0,0,0,142.95,640.67ZM28.6,196.24l21.21-75.13a5,5,0,0,0,1,.11,4.92,4.92,0,0,0,2.48-.69l45.85,60a4.94,4.94,0,0,0-1.63,3.66c0,.08,0,.15,0,.23L31.47,199.15A5,5,0,0,0,28.6,196.24ZM15.8,57.38,75.06,9.31a5,5,0,0,0,1.84,1.15L51.4,111.34a4.31,4.31,0,0,0-3.09.65L14.88,63.9a4.93,4.93,0,0,0,.92-6.53ZM201.36,23.51A4.94,4.94,0,0,0,205,21.94L270.16,72a4.66,4.66,0,0,0-.66,3.39L149.88,111.3a5,5,0,0,0-1.71-2.3l41.06-69.08,10-16.88A4.92,4.92,0,0,0,201.36,23.51Zm96.42-9.79a4.84,4.84,0,0,0,5.67-2.5l93.19,37.1a4.91,4.91,0,0,0-.21,1.36c0,.16,0,.3,0,.46l-10,1.94-107.44,21a5,5,0,0,0-2.65-3l.78-2.07Zm184.1-3.12a4.92,4.92,0,0,0,1.32-.2l26.19,67.5a5,5,0,0,0-2.44,2.64L406.28,50.61a4.88,4.88,0,0,0-.3-2.87l4.33-2.37L477.79,8.44A5,5,0,0,0,481.88,10.6ZM685.57,40.24a4.94,4.94,0,0,0,2.73-.82l56.42,69.41a4.93,4.93,0,0,0-1.48,3.16l-133.1,5.55a4.92,4.92,0,0,0-1.22-2.53L682.5,39.15A4.92,4.92,0,0,0,685.57,40.24Zm721.34,572a4.91,4.91,0,0,0-.66.07l-16.08-65.2a5,5,0,0,0,2.43-1.83L1425.73,563a4.92,4.92,0,0,0,2.07,6.11l-19.41,43.35A4.91,4.91,0,0,0,1406.9,612.2Zm-163.54,26.1-68-15.7a4.49,4.49,0,0,0-1-3.61l77.17-71.72a4.93,4.93,0,0,0,2.47,1.22l-6.08,84.32-.15,2.11A4.94,4.94,0,0,0,1243.36,638.3ZM152,637.42a4.94,4.94,0,0,0-2.27-3.74L189,555a4.84,4.84,0,0,0,4.15-.19l56,80.32a4.92,4.92,0,0,0-1.69,3.21l-32.17-.3ZM9.17,518.29,77,551.78a4.92,4.92,0,0,0,2.83,6.43L66.21,617.06c-.16,0-.31,0-.47,0a4.92,4.92,0,0,0-2.14.5L7.84,519.7A5,5,0,0,0,9.17,518.29ZM865.4,15.23a4.92,4.92,0,0,0,2.5-.7l65.72,90.06a5,5,0,0,0-1.49,3.54s0,0,0,0l-10.45.83-67.31,5.35a5,5,0,0,0-3.65-3.91l14.42-95.25Zm537.35,599.21L1259.57,545.2a4.91,4.91,0,0,0,.25-1.25l123.8-.92a4.78,4.78,0,0,0,5.58,4.28l14.68,59.52,1.4,5.68A5,5,0,0,0,1402.75,614.45ZM951.33,594.79l-120.39,3.68a5,5,0,0,0-2.77-3.5l13.07-27.7,7.6-16.11a4.88,4.88,0,0,0,6.6-1.87l96.16,44.45A4.93,4.93,0,0,0,951.33,594.79ZM628.46,624.42a5,5,0,0,0-2.69-1.37L631,539.92l2-32.22a5,5,0,0,0,4.59-3.66l111,18.34a4.59,4.59,0,0,0,.41,2.93L717.93,550.9ZM147,632.91a4.93,4.93,0,0,0-2.63.77L85,557.2a4.93,4.93,0,0,0,1.55-3.42l10.4-.28,89-2.43a5,5,0,0,0,2.14,3.46l-39.36,78.72A4.93,4.93,0,0,0,147,632.91Zm785.2-523.73a5,5,0,0,0,4.86,3.93,4.91,4.91,0,0,0,1.37-.22l22.88,50.33,7.84,17.25a5,5,0,0,0-1.49,1.49L855.14,117.89l-1.1-.62a5,5,0,0,0,.42-1.91l48-3.82Zm123.84-50.56L1067.18,189a5,5,0,0,0-3.91,3.84l-86.44-8s0-.09,0-.14a4.94,4.94,0,0,0-1.92-3.9l79-122.68A4.91,4.91,0,0,0,1056.09,58.61ZM494.75,502.25a4.91,4.91,0,0,0-.59-1.91L540.62,468l36.84-25.63a5,5,0,0,0,7,1.47l45,55.36a4.94,4.94,0,0,0-1.42,3ZM145.23,117.95a4.92,4.92,0,0,0,3-1.06l56.59,52.17a4.92,4.92,0,0,0-1.14,2.88l-96.46,10.82a5,5,0,0,0-2-2.76l37.88-62.54A4.92,4.92,0,0,0,145.23,117.95Zm607.85-5,91.5,2.69a4.94,4.94,0,0,0,2,3.68L801.7,197.43a4.92,4.92,0,0,0-3.77,0l-46.83-81.06A4.94,4.94,0,0,0,753.08,112.92ZM1176,107.18l1.75,109.38a4.94,4.94,0,0,0-4.08,3.24l-40.57-10.21-60-15.11a4.53,4.53,0,0,0-.86-3.52L1173,105.89A4.93,4.93,0,0,0,1176,107.18ZM1289.74,89.5a4.92,4.92,0,0,0,3.09-1.1l97.35,99.21a4.92,4.92,0,0,0-1.17,3.16s0,0,0,.07l-145.37,16.77a5,5,0,0,0-2.4-3.19l1.85-4.54,45.14-110.64A4.92,4.92,0,0,0,1289.74,89.5Zm69.8,131.25L1289,283.51a4.88,4.88,0,0,0-5.41-.83l-4.88-8.2-36.82-61.89a4.94,4.94,0,0,0,1.88-3.86s0-.09,0-.13l145.36-16.77a4.92,4.92,0,0,0,.84,1.85Zm-842.72-58.3a4.94,4.94,0,0,0,1.37,3.41l-2,2.81-84.64,117.4a4.91,4.91,0,0,0-2.3-.59,5,5,0,0,0-1,.1l-39.66-119a5,5,0,0,0,2.86-4.17Zm104.44,34.06,123-81.07a4.94,4.94,0,0,0,3.81,1.92l6.19,77.82a5,5,0,0,0-3.86,4l-16.21-.12-112.29-.81A4.92,4.92,0,0,0,621.26,196.51Zm427.57,342.38,18.77-78.71,4.81-20.16a4.49,4.49,0,0,0,3.23-.64l68.54,89.55a5,5,0,0,0-1.49,3.54s0,.08,0,.11l-90.7,9.88A5,5,0,0,0,1048.83,538.89Zm-857.9,6.54a5,5,0,0,0-.9.09l-31.3-123.37a4.94,4.94,0,0,0,2.32-1.41l110.35,77a4.72,4.72,0,0,0-.35,4l-76.17,45.7A4.94,4.94,0,0,0,190.93,545.43ZM211.67,168.3l60.23-89.43a4.76,4.76,0,0,0,3.63.56l25.38,68.29,13,35.05a5,5,0,0,0-2.38,2.91l-98-13.61A4.94,4.94,0,0,0,211.67,168.3ZM1235.6,212.48,1168,305.67a4.91,4.91,0,0,0-1.32-.54l1.34-9.22,10.08-69.5.21,0a5,5,0,0,0,5-5,4.86,4.86,0,0,0-.05-.52l50.89-10.76A4.94,4.94,0,0,0,1235.6,212.48Zm56.23,198.44-36.12,127.8a4.74,4.74,0,0,0-4.11,1.18l-34.13-30.43-77.78-69.35a4.92,4.92,0,0,0,1-2.94c0-.16,0-.31,0-.47l148.28-28.91A5,5,0,0,0,1291.83,410.92ZM756.56,519.28l74.39-89.08a4.92,4.92,0,0,0,2.86,1.07l13.6,96.82,2,14.08a5,5,0,0,0-2.85,2.82l-88.06-21.57c0-.07,0-.15,0-.22A4.94,4.94,0,0,0,756.56,519.28Zm-123.66-21.5a4.94,4.94,0,0,0-2.73.82l-45-55.37a4.66,4.66,0,0,0,1.37-4.17l95.3-10.79a4.94,4.94,0,0,0,1.47,2.66l-48,67.52A4.92,4.92,0,0,0,632.91,497.78ZM208.65,177.19a5,5,0,0,0,4.88-4.12l97.83,13.59c0,.16,0,.31,0,.47a4.93,4.93,0,0,0,.45,2L201.44,268a4.94,4.94,0,0,0-2.68-1.59l9.81-89.21Zm763.23,12.42a4.92,4.92,0,0,0,3.22-1.21l95.87,83a4.78,4.78,0,0,0-.62,4.09L930.61,327.62a5,5,0,0,0-2.61-2.41l42.77-135.74A5,5,0,0,0,971.88,189.61Zm317.49,214.18a4.92,4.92,0,0,0-.71,2.51,4.84,4.84,0,0,0,.05.52l-148.27,28.91a4.94,4.94,0,0,0-3.18-3.26l27.57-117.62a4.64,4.64,0,0,0,4.27-1.5l64.16,48.24ZM753.54,518.23a4.91,4.91,0,0,0-2.42.65l-61.25-87.76a4.93,4.93,0,0,0,1.77-3.43l137.44-.93a4.91,4.91,0,0,0,1.14,2.74l-74.52,89.24A4.92,4.92,0,0,0,753.54,518.23ZM395.68,487l-2.21-41.11-2.23-41.55a5,5,0,0,0,4.09-4.6l96.44-2.7a4.93,4.93,0,0,0,.89,2.56l-94.07,88.54A4.92,4.92,0,0,0,395.68,487Zm-120,8.09a4.93,4.93,0,0,0-3.76,1.75l-99.45-69.36-10.87-7.58a4.92,4.92,0,0,0,.52-1.21l151,27c0,.06,0,.12,0,.19a5,5,0,0,0,1.48,3.54l-36.75,46.16A4.92,4.92,0,0,0,275.72,495.13Zm694.11-306L927,324.94a4.84,4.84,0,0,0-5.15,2.4L812.76,275.07a4.74,4.74,0,0,0-.21-3.85l93.81-50.6,61.44-33.14A5,5,0,0,0,969.82,189.15Zm207.27,37.13L1165.68,305l-.18,0a5,5,0,0,0-4.42,2.74l-81.26-32.15a4.63,4.63,0,0,0-.07-3.2l94.38-48.21A5,5,0,0,0,1177.1,226.28ZM316.29,192.09a4.93,4.93,0,0,0,3.32-1.3l57.13,52.12,48.67,44.4a4.92,4.92,0,0,0-1.14,3.07L303.31,309.06l-4.52.7a5,5,0,0,0-3.41-3.22L315.54,192A4.93,4.93,0,0,0,316.29,192.09ZM510.57,299c0,.12,0,.24,0,.36a5,5,0,0,0,3.64,4.77l-17,87.68c-.16,0-.31,0-.47,0a4.94,4.94,0,0,0-2,.43l-28.78-45.29-33.5-52.71a4.93,4.93,0,0,0,1.7-3.1Zm-18.76,97-96.52,2.71a5,5,0,0,0-2.74-3.74l35.39-99.81a4.68,4.68,0,0,0,3.66-.44l62.24,97.93A5,5,0,0,0,491.81,396.08ZM427,294.88,391.62,394.7a4.77,4.77,0,0,0-4.43,1l-89-81.63a4.47,4.47,0,0,0,.79-3.36l125.34-19.35A5,5,0,0,0,427,294.88ZM295.5,316.06a5,5,0,0,0,2.08-1.21l88.92,81.59a4.84,4.84,0,0,0-.53,5.28l-64,41.18a4.94,4.94,0,0,0-3.9-1.92,4.88,4.88,0,0,0-.56.06l-4.58-26ZM518.29,303.5a4.85,4.85,0,0,0,1.95-5.51l52-18.2,18.3-6.4a5,5,0,0,0,3.69,3.06L581.1,434.83a4.93,4.93,0,0,0-1.21.28L544,358.46Zm561.14-27,81.29,32.16a4.8,4.8,0,0,0,1.44,5l-86.54,117.24a4.91,4.91,0,0,0-2-.65L1075.48,279A4.94,4.94,0,0,0,1079.44,276.5Zm56.28,155.71a5,5,0,0,0-4.9,4.32l-52.75-1.67a4.93,4.93,0,0,0-1.63-3.4L1163,314.21a4.91,4.91,0,0,0,.9.42l-27.57,117.64A4.89,4.89,0,0,0,1135.72,432.2Zm-66.36-.28-45.28-32.43L930.4,332.4a4.73,4.73,0,0,0,.55-3.85l139.76-52.18a4.94,4.94,0,0,0,3.78,2.63l-1.25,101.18-.62,50A4.93,4.93,0,0,0,1069.35,431.92ZM599.74,273.46l128.67,47.21a4.89,4.89,0,0,0,2.45,5.41l-27.2,61.34-15.58,35.14a4.67,4.67,0,0,0-3.52.3L598.2,275.47A5,5,0,0,0,599.74,273.46Zm208.36,4.91h0l16.38,97,7.82,46.29a4.93,4.93,0,0,0-1.55.92l-6.17-6.41L737,325a4.86,4.86,0,0,0,.76-5.44l66.34-43.34A5,5,0,0,0,808.11,278.37Zm113.38,49.88a4.78,4.78,0,0,0,.87,4.71L836.79,422.2a4.63,4.63,0,0,0-3.49-.77L809.13,278.26a5,5,0,0,0,3.21-2.29l34.46,16.51ZM689,422.93l42.77-96.46a4.76,4.76,0,0,0,4.44-.76l20.65,21.46,73.23,76.13a4.91,4.91,0,0,0-1,2.47l-137.48.93A4.94,4.94,0,0,0,689,422.93Zm148.55-.09,85.5-89.18a4.92,4.92,0,0,0,3,1.12l12.78,109.52a5,5,0,0,0-3.7,3.26l-96.23-20.68a4.54,4.54,0,0,0-1.38-4Zm102.29,21.37L927.08,334.7a4.94,4.94,0,0,0,2.73-1.51l99.59,71.33,39.4,28.22a4.91,4.91,0,0,0-.64,2.39s0,0,0,.07L944.68,448.1A5,5,0,0,0,939.85,444.21ZM590.18,271.58a5,5,0,0,0,.09.85l-48,16.8-22.39,7.84a5,5,0,0,0-3.5-2.55l5.53-127.11a4.92,4.92,0,0,0,2.36-.67l67.89,100.91A4.94,4.94,0,0,0,590.18,271.58ZM582.1,434.82l13.11-158.28a4.92,4.92,0,0,0,2.15-.54L672.54,404.3l11.18,19.09a4.94,4.94,0,0,0-2,3.9l-95.44,10.8A4.94,4.94,0,0,0,582.1,434.82Zm494.35,4a4.93,4.93,0,0,0,1.57-3l52.77,1.68a5,5,0,0,0,4.93,4.63h.06l10.69,85.53a4.93,4.93,0,0,0-1.51.65L1083.5,448ZM754.68,204.95a4.35,4.35,0,0,0,3.11-.64l35.65,49.78L804.7,269.8a4.93,4.93,0,0,0-1.14,5.6l-66.37,43.36a4.94,4.94,0,0,0-2.55-1.75l6.57-36.72ZM617,204a4.92,4.92,0,0,0,3.19-1.19L729.44,318.6a4.94,4.94,0,0,0-.72,1.13L600,272.5A4.91,4.91,0,0,0,597,267l6.57-21.8L616,203.9A5,5,0,0,0,617,204Zm-96.11-36.69-5.53,127.12a5,5,0,0,0-4.63,3.61l-76.58-7.92a4.93,4.93,0,0,0-1.8-3.51l86.59-120.11A4.93,4.93,0,0,0,520.89,167.33Zm-134.4-.24a4.94,4.94,0,0,0,1.14-.14l39.65,118.94a4.94,4.94,0,0,0-1.17.73L320.28,190.06a4.78,4.78,0,0,0,.7-4.51l48.16-17,12.81-4.51A5,5,0,0,0,386.5,167.09Zm-184,105.58a4.69,4.69,0,0,0-.44-3.87l80-57.11L312.28,190a5,5,0,0,0,2.3,1.74l-3.94,22.36L294.4,306.38c-.1,0-.2,0-.31,0a5,5,0,0,0-4.21,2.36l-75.32-31.06Zm87.88,41.87a4.93,4.93,0,0,0,3.76,1.75c.15,0,.28,0,.42,0l22.06,125a5,5,0,0,0-3.28,3.53l-151-27c0-.12,0-.24,0-.37a4.93,4.93,0,0,0-.94-2.89l27.82-21.57Zm32.2,129.21,64-41.18a4.93,4.93,0,0,0,3.74,1.89l4.44,82.64a4.93,4.93,0,0,0-3.15,1.85l-69-40.72a4.79,4.79,0,0,0,0-4.48Zm178.89-45.52a4.86,4.86,0,0,0-3.28-6.19l17-87.71c.12,0,.23,0,.35,0a5,5,0,0,0,1.92-.39L579,435.55a5,5,0,0,0-1.33,1.25L505,400ZM853.51,542.45a4.57,4.57,0,0,0-3.15-.54l-9.58-68.19-6-42.5a4.94,4.94,0,0,0,3.92-3.36l96.21,20.68a4.55,4.55,0,0,0,1.21,3.94L904.41,487Zm102.83-51.37a4.88,4.88,0,0,0-5.25-2l-9.41-35.29a5,5,0,0,0,3.12-4.6s0-.06,0-.09l123.48-12.9a4.94,4.94,0,0,0,.21.66l-65.69,31.77ZM1068,198.79l1.35,15.57,4.74,54.88a5,5,0,0,0-2.52,1.35L993.46,203l-17.67-15.29a4.92,4.92,0,0,0,.92-1.91l86.46,8s0,0,0,0A5,5,0,0,0,1068,198.79Zm-101-13a4.94,4.94,0,0,0,.27.85L812,270.38a4.94,4.94,0,0,0-3.92-1.95c-.12,0-.24,0-.36,0l-6.84-61.6a5,5,0,0,0,3.89-4.84c0-.11,0-.21,0-.32l107.71-10.58ZM794.86,202s0,0,0,.05a5,5,0,0,0,5,5h.09l6.85,61.65a4.93,4.93,0,0,0-1.27.55L758.6,203.71a4.93,4.93,0,0,0,1.61-3.28l27.06,1.2Zm-41.15,2.76L738.83,288l-5.16,28.87c-.14,0-.27,0-.41,0a4.92,4.92,0,0,0-3.1,1.12L620.89,202.11a4.92,4.92,0,0,0,1.06-2.86l128.37.92A4.94,4.94,0,0,0,753.71,204.73ZM615,203.59l-4,13.19-15,49.91a4.64,4.64,0,0,0-3,.43l-5.7-8.47-62.22-92.49a5,5,0,0,0,1.33-1.84l85.94,33.12a4.89,4.89,0,0,0,2.69,6.15Zm-417.3,72.62a5,5,0,0,0,4.36-2.63L263.61,299l25.84,10.65a4.76,4.76,0,0,0,.32,4.11l-54.92,42.58-74.1,57.45a4.94,4.94,0,0,0-2-1.1l38.07-136.51A5,5,0,0,0,197.72,276.21ZM399.29,488.88l94-88.5a4.93,4.93,0,0,0,2.63,1.27l-6.29,96.14a5,5,0,0,0-4.67,3.89l-84.58-9.79A4.92,4.92,0,0,0,399.29,488.88Zm91.36,9,6.29-96.15a4.94,4.94,0,0,0,4.1-2.57l72.31,36.58,3.81,1.93a4.8,4.8,0,0,0-.14,3.84l-83.43,58A4.93,4.93,0,0,0,490.65,497.86ZM636.16,499l48-67.49a4.83,4.83,0,0,0,4.94.15l61.26,87.77a5,5,0,0,0-1.4,2L637.84,503.06c0-.11,0-.21,0-.31A4.94,4.94,0,0,0,636.16,499ZM854.93,543.6a5,5,0,0,0-.59-.59l30.83-33.57,51.7-56.29a4.79,4.79,0,0,0,3.85.91l8,29.84,1.47,5.51a5,5,0,0,0-2.87,4.49,4.91,4.91,0,0,0,.28,1.58l-64.82,33.68Zm292.72-16.1-.21,0L1136.76,442a4.93,4.93,0,0,0,2.27-1.18l62.55,55.77,49.35,44a4.92,4.92,0,0,0-.88,1.87l-97.43-9.92s0-.06,0-.1A5,5,0,0,0,1147.66,527.5ZM1290,403l-120.25-90.42a4.93,4.93,0,0,0,.76-2.61c0-.14,0-.26,0-.4l105.21-20,5.29-1a5,5,0,0,0,4.59,3.58l7.29,109.29A4.93,4.93,0,0,0,1290,403Zm-7.21-119.8a5,5,0,0,0-2,4c0,.14,0,.26,0,.4l-110.5,21a4.94,4.94,0,0,0-1.46-2.32L1236.41,213a4.79,4.79,0,0,0,4.66.09l38.13,64.09ZM1173.4,220.76a4.88,4.88,0,0,0-.07.71,4.94,4.94,0,0,0,.35,1.81l-94.36,48.2a5,5,0,0,0-4.21-2.35h0L1069,198.71a5,5,0,0,0,3.79-3.26l83.45,21ZM795,201l-.85,0-33.94-1.51a5,5,0,0,0-4.91-4.36h0l-6.19-77.8a4.9,4.9,0,0,0,1.2-.39l46.81,81A5,5,0,0,0,795,201ZM320.57,184.64a4.83,4.83,0,0,0-5.72-2.25L298.61,138.7,276.46,79.1A5,5,0,0,0,278,78.05l104.41,81.31a4.95,4.95,0,0,0-.73,3.77Zm-213.14-.9,96.32-10.8a5,5,0,0,0,3.83,4.13l-9.81,89.22h0a4.93,4.93,0,0,0-3.29,1.27L106.56,187a4.93,4.93,0,0,0,.92-2.86C107.47,184,107.44,183.87,107.43,183.74Zm173.1,315.18a5,5,0,0,0-1.81-2.75l36.68-46.06a4.92,4.92,0,0,0,6.55-1L391,489.78a4.92,4.92,0,0,0-.5,1.87l-58.72,3.88Zm676.3-7,112.09-54.21a5,5,0,0,0,2.54,2l-12.57,52.68-11,46.18a4.74,4.74,0,0,0-4.81,2.1l-86.23-44.91a5,5,0,0,0,0-3.89Zm299.84,47,24.39-86.31,11.72-41.49a4.64,4.64,0,0,0,3.22-.54l89.25,128a4.93,4.93,0,0,0-1.67,3.35l-96.69.72-27.11.2A5,5,0,0,0,1256.67,539ZM967.26,182.84a4.94,4.94,0,0,0-.35,1.8s0,.09,0,.14l-162.33,16a5,5,0,0,0-2-2.83L847,120.53l.43-.75a4.92,4.92,0,0,0,6.07-1.65l28,15.91ZM516.92,161.46H391.4a4.9,4.9,0,0,0-.55-1.68L507.79,85.53a4.93,4.93,0,0,0,3.78,1.78l.23,0,8.79,70.36A5,5,0,0,0,516.92,161.46ZM390.3,159a4.94,4.94,0,0,0-2.68-1.66L401.25,54.63l.16,0A5,5,0,0,0,406,51.56L506.68,81.5a4.64,4.64,0,0,0,.54,3.22ZM195.92,275.86,184.33,317.4l-26.51,95.06c-.14,0-.28,0-.42,0a4.92,4.92,0,0,0-3,1.06L40.29,280.55a4.93,4.93,0,0,0,1.55-3l151-5.59A5,5,0,0,0,195.92,275.86ZM152.53,418.33a5,5,0,0,0,4.87,4c.12,0,.23,0,.35,0L189.08,545.8a4.93,4.93,0,0,0-.79.41L102,428.38a4.65,4.65,0,0,0,1.43-4.23l33.41-4ZM361.66,661.72a4.94,4.94,0,0,0-1.83.36L278.17,504.39a5,5,0,0,0,2.51-4.29c0-.07,0-.13,0-.19l16-1.06,93.92-6.21a4.94,4.94,0,0,0,3.45,4.07l-8.43,43.65-23.45,121.4C362,661.75,361.81,661.72,361.66,661.72Zm38.66-168.84,84.55,9.79s0,0,0,.07a5,5,0,0,0,5,5l.18,0,12.57,91.58a4.92,4.92,0,0,0-1.9.93L399.29,495.09A4.92,4.92,0,0,0,400.32,492.88Zm425.75,101.6a4.92,4.92,0,0,0-3.08,1.1l-65.64-69.24a4.92,4.92,0,0,0,1-1.94l87.93,21.53A4.79,4.79,0,0,0,848,550.6L835.92,576.2l-8.69,18.43A4.94,4.94,0,0,0,826.07,594.49Zm29.43-50.06L948,496.37a4.94,4.94,0,0,0,3.56,2.41l3.6,91.86a5,5,0,0,0-3.11,2.21l-96.19-44.46a4.72,4.72,0,0,0-.34-4Zm297-10.87,81,8.25,16.39,1.67s0,.08,0,.12a4.93,4.93,0,0,0,1,2.92l-77.18,71.73a4.64,4.64,0,0,0-4-1.18l-20.43-79.93A5,5,0,0,0,1152.5,533.56ZM1358.77,380a4.93,4.93,0,0,0-1.44,4.61l-59.14,19.71a5,5,0,0,0-4.39-3l-2.05-30.75-5.24-78.53a4.93,4.93,0,0,0,1.87-.72l36.73,46.28ZM1233.85,208.73a4.81,4.81,0,0,0,0,.49L1183,220a4.94,4.94,0,0,0-4.3-3.43l-1.4-87.54-.35-21.86a4.92,4.92,0,0,0,1.44-.41L1236,204.62A5,5,0,0,0,1233.85,208.73ZM612.74,196.54l-86.08-33.17a4.73,4.73,0,0,0-.5-3.23L601,120.92a5,5,0,0,0,4.22,2.37h.08l10.51,71A5,5,0,0,0,612.74,196.54ZM271.09,78.29l-60.27,89.48a4.84,4.84,0,0,0-5.27.59L191.06,155,149,116.2a4.6,4.6,0,0,0,1.15-3.93L269.76,76.38A5,5,0,0,0,271.09,78.29ZM142.26,116.94l-29.6,48.87-8.31,13.73a4.85,4.85,0,0,0-4.38.36L54.13,119.95a4.93,4.93,0,0,0,1.65-3.36l84.58-2.67A5,5,0,0,0,142.26,116.94ZM102.5,189.11a4.94,4.94,0,0,0,3.4-1.36l27.88,25.55,60,55a4.92,4.92,0,0,0-1,2.65L41.86,276.52a4.93,4.93,0,0,0-1.67-3.33l59.61-84.9A4.94,4.94,0,0,0,102.5,189.11Zm-63,92,114.15,133a4.92,4.92,0,0,0-1.21,3.17l-49.24,5.84a4.85,4.85,0,0,0-6-3.1L39.05,281.39A5,5,0,0,0,39.49,281.15Zm59,148.65a4.93,4.93,0,0,0,2.69-.8l1.66,2.27L187.5,546.82a4.94,4.94,0,0,0-1.5,3.25l-99.47,2.71a5,5,0,0,0-3.94-4.07L98.15,429.76C98.27,429.77,98.4,429.8,98.53,429.8ZM252.68,633.93c-.1,0-.2,0-.31,0a4.91,4.91,0,0,0-2.4.65l-2.55-3.66L194,554.25a4.87,4.87,0,0,0,1.36-6l76.06-45.64a5,5,0,0,0,2.45,2.11l-5,30.64Zm251.07-34.81-.18,0L491,507.56a5,5,0,0,0,3.76-4.32H628a4.93,4.93,0,0,0,.73,2.16l-121.4,95.25A4.94,4.94,0,0,0,503.74,599.12Zm452.49-8.61h-.1l-3.6-91.7a5,5,0,0,0,3.8-2.12l61,31.76,25.26,13.16a4.95,4.95,0,0,0,0,3.9l-14.4,8.14L960,592.24A4.94,4.94,0,0,0,956.23,590.51Zm86.9,13.66,4.22-55.68a5,5,0,0,0,4.79-4.95s0-.06,0-.1l90.7-9.88a4.91,4.91,0,0,0,.57,1.41L1046,605.73A4.93,4.93,0,0,0,1043.13,604.17Zm344.08-66.54a4.91,4.91,0,0,0-1.14.48l-89.24-128a4.9,4.9,0,0,0,1.67-4.81l59.14-19.71a5,5,0,0,0,4.56,3c.11,0,.22,0,.33,0l8.58,51.82Zm-25-159a4.93,4.93,0,0,0-2.64.77l-.93-1.17-69.46-87.51a4.94,4.94,0,0,0,1.49-3.47l100.5-7.85,16.84-1.32a5,5,0,0,0,2.31,3.35l-46.47,97.49A4.92,4.92,0,0,0,1362.19,378.63Zm49.14-106.12a5,5,0,0,0-3.42,4.59l-117.34,9.17a4.91,4.91,0,0,0-.88-2l101-89.84a4.93,4.93,0,0,0,3.35,1.32,4.88,4.88,0,0,0,.56-.06l2.5,11.44Zm-19.62-86.13a4.94,4.94,0,0,0-.82.53L1293.54,87.7a4.92,4.92,0,0,0,1.08-2.29l54.66,5a5,5,0,0,0,5,4.93,4.91,4.91,0,0,0,1.35-.21l10.95,27.64ZM1287.33,88.85l-47,115.17a4.76,4.76,0,0,0-3.43.12l-57.65-97.92a5,5,0,0,0,2-4c0-.06,0-.12,0-.18L1284.93,85.7A5,5,0,0,0,1287.33,88.85Zm-115.78,12.06a4.77,4.77,0,0,0,.74,4.24l-77.38,65.31-23.4,19.75a4.94,4.94,0,0,0-3.34-1.34l-2.44-28.67-8.65-101.67a5,5,0,0,0,3.46-2.57l12.85,5.2ZM1053.09,57.52l-79,122.69a4.8,4.8,0,0,0-4-.19l-16.4-36.07L939.4,112.51a4.84,4.84,0,0,0,2.41-5.9L1051.9,56.16A5,5,0,0,0,1053.09,57.52ZM743.73,114.6,620.67,195.71a4.94,4.94,0,0,0-3.66-1.63l-.18,0-10.51-70.93a5,5,0,0,0,3.88-4.64L743.25,113A4.91,4.91,0,0,0,743.73,114.6ZM600.6,120l-75,39.28a4.94,4.94,0,0,0-3.82-1.82l-.22,0-7.12-57-1.68-13.41A5,5,0,0,0,516,84.63L600.48,117a4.59,4.59,0,0,0,.12,3ZM396.67,51.11a5,5,0,0,0,3.59,3.39L386.63,157.16h-.13a5,5,0,0,0-3.5,1.45L278.57,77.27a4.93,4.93,0,0,0,.79-2.67,4.87,4.87,0,0,0-.06-.57L381,54.17ZM67.18,617.25l13.63-58.78a4.68,4.68,0,0,0,3.43-.67l59.39,76.48a5,5,0,0,0-1.32,2.16l-71.65-14a4.86,4.86,0,0,0,0-.49A5,5,0,0,0,67.18,617.25Zm186.47,16.84,8.61-52.4L274.87,505a4.45,4.45,0,0,0,2.4-.18l81.68,157.74A5,5,0,0,0,357,665L257.26,639.6a4.8,4.8,0,0,0-3.61-5.51ZM363.08,662,395,496.9c.16,0,.31,0,.48,0a4.92,4.92,0,0,0,3.15-1.15L500,600.9a4.77,4.77,0,0,0-.93,4.73L366,664.25A5,5,0,0,0,363.08,662Zm386.5-135.78a5,5,0,0,0,2.37,1.71L741.91,607l-3.56,28a5,5,0,0,0-4.8,3.89L629.92,628v0a4.94,4.94,0,0,0-.83-2.75Zm-10.25,108.9.34-2.69,13.26-104.27a4.47,4.47,0,0,0,3.71-1.05l65.64,69.23a4.78,4.78,0,0,0-1,4.34l-78.68,36.66A5,5,0,0,0,739.34,635.07Zm221.2-42L1002,569.63l41.12-23.24a5,5,0,0,0,3.26,2l-4.22,55.68a5,5,0,0,0-4.58,3.69L961.2,595.51s0,0,0,0A4.92,4.92,0,0,0,960.54,593.05Zm86.05,13.47,20.49-14.88,76.9-55.86a4.6,4.6,0,0,0,4.32,1.59l20.43,79.95a5,5,0,0,0-3.17,3.67l-118.25-11.92h0A4.92,4.92,0,0,0,1046.59,606.53Zm341.93-69.09c-.11,0-.22,0-.33,0l-14.89-89.88-9.81-59.22a5,5,0,0,0,2.21-1.26l53.48,44.79a5,5,0,0,0,2.12,7.34l-31.72,98.32A5,5,0,0,0,1388.52,537.43ZM1424.76,172l-2.38,1.41L1398,187.83a4.82,4.82,0,0,0-5.34-1.82L1359,101.11l-2.5-6.3a4.94,4.94,0,0,0,.74-.47l68.26,72.33a4.86,4.86,0,0,0-.76,5.32ZM1051.49,55.25,957,98.56l-15.6,7.15a4.94,4.94,0,0,0-3.86-2.49l.8-36.5,1-44.39a5,5,0,0,0,4.19-3l107.8,33.34a5,5,0,0,0-.1,1A4.91,4.91,0,0,0,1051.49,55.25ZM864.17,15.06,851.44,99.13l-1.69,11.18-.25,0a5,5,0,0,0-4.9,4.33l-91.52-2.69a4.91,4.91,0,0,0-.93-2.46L862,13.88A4.94,4.94,0,0,0,864.17,15.06ZM142,109.24a4.93,4.93,0,0,0-1.72,3.68l-84.53,2.67a4.94,4.94,0,0,0-3.37-4L77.87,10.69a4.42,4.42,0,0,0,2.88-.45l58.42,94.45ZM31.79,200.87a4.91,4.91,0,0,0-.08-.75l66-14.76A5,5,0,0,0,99,187.68l-9.27,13.2L39.38,272.62a4.91,4.91,0,0,0-2.45-.67c-.12,0-.23,0-.34,0L28,205.69A5,5,0,0,0,31.79,200.87ZM97.17,429.59,93.49,457.7,81.6,548.62a5,5,0,0,0-4.13,2.27L9.61,517.4a4.83,4.83,0,0,0-.77-4.82L95,428.28A5,5,0,0,0,97.17,429.59Zm411.5,175c0-.15,0-.3,0-.46a4.93,4.93,0,0,0-.78-2.65l87.69-68.8,33.71-26.45a4.94,4.94,0,0,0,2.77,1.45L624.77,623a4.94,4.94,0,0,0-4.55,3.51l-76.46-15Zm744.19,34.1a5,5,0,0,0-4.08-3.69l6.24-86.4a4.94,4.94,0,0,0,4.14-2.45l56.55,27.35,86.59,41.88a4.94,4.94,0,0,0-.36,1.84s0,0,0,.05l-101.22,14.55ZM1365.59,380a5,5,0,0,0-.86-.65l34.12-71.58,12.34-25.9a4.34,4.34,0,0,0,2.42.23l11,42.62a4.95,4.95,0,0,0-2.39,7.46l-44.58,37.67Zm47.52-107.73-.25,0a4.89,4.89,0,0,0-.56.06l-16.78-76.83a4.91,4.91,0,0,0,3-6.78l26.79-15.85a5,5,0,0,0,2.75,1.86L1416.82,248ZM1351,86.67a4.94,4.94,0,0,0-1.64,2.79l-54.67-5a5,5,0,0,0-4.17-4.78l5.21-67.73a4.92,4.92,0,0,0,2.3-.64l2.37,3.37Zm-56.26-74.84-5.21,67.75a5,5,0,0,0-4.76,4.95c0,.06,0,.12,0,.19l-103.67,16.37a4.93,4.93,0,0,0-.59-1.43l111.54-89.23A5,5,0,0,0,1294.75,11.83ZM1174.66,29.32a4.94,4.94,0,0,0,4,3.4l-2.58,64.58a4.94,4.94,0,0,0-4.19,2.68L1060.92,55a4.91,4.91,0,0,0,.22-1.39,4.77,4.77,0,0,0-.05-.52l34.59-7.25Zm-236.34-7-1.5,68.82-.26,12.1a4.93,4.93,0,0,0-2.15.75L868.71,14a4.94,4.94,0,0,0,1.57-2.71L934,17.41A5,5,0,0,0,938.32,22.29ZM600.84,116.08,516.32,83.71a4.76,4.76,0,0,0-.76-4.29l57-55L581,16.2a4.92,4.92,0,0,0,3.19,1.19c.16,0,.31,0,.46,0l19,96.29A5,5,0,0,0,600.84,116.08Zm-304-102.71-17.2,45.4-4.17,11a4.87,4.87,0,0,0-4.73,1.46L205.58,21.16a4.92,4.92,0,0,0,.76-2.6L294.2,9.92A5,5,0,0,0,296.86,13.37ZM19.48,271.84,32,276.12a4.85,4.85,0,0,0,3.8,5.63l-9.51,101-10.44-108A5,5,0,0,0,19.48,271.84Zm17.34,10h.11a4.93,4.93,0,0,0,1.19-.16L96.23,420.45a5,5,0,0,0-1.62,1.36l-51.7-26-11.94-6a4.92,4.92,0,0,0,.24-1.45,5,5,0,0,0-4-4.86l4.29-45.6ZM171.59,697.65a4.87,4.87,0,0,0-4.75-1.53L149.07,642.4a5,5,0,0,0,2.89-4l95.48.9a4.91,4.91,0,0,0,.66,2.07l-52.37,38.51Zm84.34-55.33a5,5,0,0,0,1.09-1.76l68,17.3L356.77,666a4.64,4.64,0,0,0,.79,3.53l-42.62,35.87a4.95,4.95,0,0,0-6.26-.54Zm250.71-34.21a5,5,0,0,0,1.83-2.58l6.19,1.22L620,627.48c0,.15,0,.3,0,.46a5,5,0,0,0,1.44,3.5L564.84,700a4.87,4.87,0,0,0-5.07-.21ZM628.85,631a4.91,4.91,0,0,0,1-2l87.69,9.23,15.92,1.68s0,.06,0,.09a4.94,4.94,0,0,0,.83,2.74l-45.31,39.75a4.9,4.9,0,0,0-6.59-.14l-15.11-14.49Zm210.51,76.79a4.94,4.94,0,0,0-2.77-.84c-.12,0-.23,0-.34,0L831,650.84l-4.35-46.48a5,5,0,0,0,4.39-4.91l120.25-3.67a4.92,4.92,0,0,0,.75,2.35l-80.37,78.2Zm586.83-145.66-33.11-17.74a5,5,0,0,0-2.55-6.5l3.25-10.08,28.47-88.24a5,5,0,0,0,.81.09L1429.49,560A5,5,0,0,0,1426.19,562.11Zm-6.36-131-53.5-44.8a4.94,4.94,0,0,0-.08-5.6l6.5-5.49,50.08-42.31a4.94,4.94,0,0,0,2.81,1.34l-2.7,95.48A4.94,4.94,0,0,0,1419.83,431.14Zm5.7-106.66-11-42.62a4.94,4.94,0,0,0-.47-9.44l6.62-43.36,7.9-51.69-2.75,147.09ZM861.35,13.13l-109.87,95.6a4.9,4.9,0,0,0-6-.51L716.37,72.38l-27.3-33.58a5,5,0,0,0,1.47-3.52c0-.06,0-.12,0-.19L860.59,11.44A4.93,4.93,0,0,0,861.35,13.13Zm-384-5.56L405.5,46.87a5,5,0,0,0-2.8-2l2-11.86,1.87-11.21c.11,0,.21,0,.32,0a5,5,0,0,0,5-5c0-.08,0-.16,0-.24l65.27-9.8A5,5,0,0,0,477.31,7.57Zm-278.89,15-51.1,86a4.82,4.82,0,0,0-4.52.18l-61.2-99A5,5,0,0,0,83.44,6.8l113,11.73v0A5,5,0,0,0,198.42,22.53ZM14.06,64.47,38.14,99.09l9.38,13.48a4.94,4.94,0,0,0,1.35,8.23l-21,74.42-.21.75a4.94,4.94,0,0,0-.82-.08h0L12.67,65A4.9,4.9,0,0,0,14.06,64.47ZM26.83,205.84l.16,0,8.61,66.33a5,5,0,0,0-3.31,3l-3-1-9.47-3.23a4.92,4.92,0,0,0-3.57-5.84L26.45,205.8C26.58,205.81,26.7,205.84,26.83,205.84Zm-.58,187.45a5,5,0,0,0,4.34-2.6l63.5,32a4.85,4.85,0,0,0,.26,4.84L8.14,511.87a4.92,4.92,0,0,0-1.87-1L26,393.26C26.05,393.27,26.15,393.29,26.25,393.29ZM7,520.2,62.75,618A4.81,4.81,0,0,0,61,623.35l-10.68,4.44-18.5,7.69a5,5,0,0,0-4.32-2.56,4.88,4.88,0,0,0-.56.06L6.34,520.42A5,5,0,0,0,7,520.2ZM29.72,642.29a4.84,4.84,0,0,0,2.49-5.91l15.62-6.49,13.54-5.63a5,5,0,0,0,3.34,2.56l-6.26,80.53a4.92,4.92,0,0,0-1.33.23l-8.29-19.77Zm142.46,56.16,19-14,57.54-42.31a4.93,4.93,0,0,0,6.48.78l7,8.31,45.73,54.19a4.94,4.94,0,0,0-1.33,2.68l-133.74-7.4A4.91,4.91,0,0,0,172.18,698.45Zm143.41,7.66,42.62-35.87a4.93,4.93,0,0,0,7.18-.3L411,702.49a4.91,4.91,0,0,0-.64,2.14l-94,3.6A4.93,4.93,0,0,0,315.59,706.11Zm934.88-61.94a5,5,0,0,0,2.56-4.32c0-.08,0-.15,0-.22l149-21.43a4.9,4.9,0,0,0,.56,1.41l-118.06,88.6a4.83,4.83,0,0,0-5.14-1.26L1268,682.15ZM1285.16,709l118-88.58a5,5,0,0,0,1,.9l-39.67,79.34a4.93,4.93,0,0,0-6.68,4.64l-72,5.37A4.93,4.93,0,0,0,1285.16,709Zm147.09-3.37-23.5-83.86a5,5,0,0,0,2.8-2.9l6,1.74a5,5,0,0,0,4.86,6h.05Zm-9.78-89h-.09a5,5,0,0,0-4.56,3l-6-1.75a4.76,4.76,0,0,0-2.49-5.07l19.4-43.33.37.12ZM1428.21,165a4.92,4.92,0,0,0-2,.93L1358,93.65a4.76,4.76,0,0,0,1-4.66l54-22.32a5,5,0,0,0,4.36,2.63h.06ZM1418,59.43a4.9,4.9,0,0,0-.66-.07,5,5,0,0,0-5,5,4.9,4.9,0,0,0,.23,1.42l-39.87,16.48-14.13,5.84a5,5,0,0,0-.64-.93l69.8-75a4.92,4.92,0,0,0,1.36.73Zm8.37-48.94a4.94,4.94,0,0,0,.66,1l-69.8,75a4.94,4.94,0,0,0-.93-.56l17.18-50.28a4.91,4.91,0,0,0,5.87-6.21Zm-56.63,19.35a4.92,4.92,0,0,0,2.81,5.46l-17.18,50.28a4.74,4.74,0,0,0-3.55.52l-53-75.41a5,5,0,0,0,1.35-1.84ZM1290.86,8.31a4.93,4.93,0,0,0,.59,1.34l-81.14,64.91-30.38,24.31a4.94,4.94,0,0,0-2.84-1.51l2.58-64.6a5,5,0,0,0,4.67-4.94c0-.13,0-.25,0-.38Zm-116.42,19.1c0,.14,0,.27,0,.41a4.9,4.9,0,0,0,.05.52L1060.88,52.16a4.94,4.94,0,0,0-4.18-3.42l.19-27.48L1057,9.89a4.94,4.94,0,0,0,4.28-3.53ZM1051.64,6a5,5,0,0,0,4.33,3.9l-.05,7.6-.21,31.25a5,5,0,0,0-4.11,3L943.79,18.37a5,5,0,0,0,.1-1v0Zm-371,28.69a4.48,4.48,0,0,0,1.13,3.78l-73.6,75.87a4.47,4.47,0,0,0-3.54-.92l-8.24-41.76-10.75-54.5A4.94,4.94,0,0,0,588.91,14ZM15.93,687.8A4.92,4.92,0,0,0,13,681l13.2-38.39a4.46,4.46,0,0,0,2.58,0l10.91,26L56.2,708a5,5,0,0,0-1.7,1.5Zm47.5,23.51a4.94,4.94,0,0,0-.76-1.8l80.93-68.08a4.9,4.9,0,0,0,4.54,1.28l17.77,53.72a5,5,0,0,0-2.95,4.53v0Zm356.52-8.14a4.93,4.93,0,0,0-8.35-1.5L366,669.14a4.9,4.9,0,0,0,.54-1.34l122.86,15.64s0,.09,0,.13a4.91,4.91,0,0,0,.08.81Zm79.23-18.61a5,5,0,0,0-3.79-5.83l8.27-69.68h.09a4.93,4.93,0,0,0,2-.45l53.16,91.79a4.94,4.94,0,0,0-1.5,2.16ZM567,703.18a5,5,0,0,0-1.36-2.51l56.58-68.61a4.91,4.91,0,0,0,6-.36L681.67,683a4.92,4.92,0,0,0-1.07,3c0,.08,0,.15,0,.23ZM690.5,686.39c0-.11,0-.22,0-.33a4.93,4.93,0,0,0-.93-2.88l45.28-39.73a4.94,4.94,0,0,0,7.17-.18l90.28,66.09a4.89,4.89,0,0,0-.44,1Zm150.85,24.15a5,5,0,0,0-1.22-2.13L952.66,598.92a4.94,4.94,0,0,0,2.91,1.46l4.48,93.7a5,5,0,0,0-4.24,4.89h0ZM965.75,699a4.93,4.93,0,0,0-1.29-3.3L1039.35,613a4.81,4.81,0,0,0,3.9.93l28.4,91.63a5,5,0,0,0-2.93,3.49Zm112.57,9.88a4.92,4.92,0,0,0-.85-1.71l72.35-65.76,17.3-15.72a4.93,4.93,0,0,0,2.42,1.2l-5.18,65.2a5,5,0,0,0-4.61,4.93c0,.06,0,.12,0,.18Zm91.34-11.71c0-.05,0-.1,0-.16a4.92,4.92,0,0,0-.69-2.49l75.24-51.5a4.81,4.81,0,0,0,5.32,1.57l10.28,22.31,18.66,40.49a5,5,0,0,0-2.33,3.07Zm195.74,4,39.66-79.31a4.73,4.73,0,0,0,2.72.27l24,85.48a5,5,0,0,0-3.06,3.66l-60.92-5.77s0-.07,0-.11A5,5,0,0,0,1365.41,701.09Z"/></g></g></svg>