<svg xmlns="http://www.w3.org/2000/svg" width="40" height="40" viewBox="0 0 40 40"><defs><style>.cls-1 { fill: #25c810; fill-rule: evenodd; }</style></defs><path id="ok-2" class="cls-1" d="M170.005 10a20 20 0 1 0 20 20 19.813 19.813 0 0 0-3.011-10.538l-1.253 1.438a18.174 18.174 0 1 1-15.736-9.089 18.058 18.058 0 0 1 12.27 4.829l1.193-1.364a19.812 19.812 0 0 0-13.463-5.276zm16.588 4.317l-17.582 20.732-7.385-6.9-1.25 1.335 8.095 7.527.71.653.6-.71 18.178-21.474z" transform="translate(-150 -10)"/></svg>