<svg xmlns="http://www.w3.org/2000/svg" width="40" height="40" viewBox="0 0 40 40"><defs><style>.cls-1 { fill: #217ded; fill-rule: evenodd; }</style></defs><path id="reload-2" class="cls-1" d="M30 10a23.712 23.712 0 0 0-4.874.575.8.8 0 0 0 .324 1.576 22.276 22.276 0 0 1 4.55-.551 18.354 18.354 0 0 1 15.648 8.8h-6.048a.8.8 0 0 0-.02 1.6h8.02a.8.8 0 0 0 .8-.8v-8a.8.8 0 1 0-1.6 0v6.027a19.935 19.935 0 0 0-16.8-9.227zm-17.019 1.6a.808.808 0 0 0 .225 1.6h5.949a20.012 20.012 0 0 0-9.148 16.8 21.661 21.661 0 0 0 .25 3.326.8.8 0 1 0 1.6-.12.809.809 0 0 0-.021-.13 19.9 19.9 0 0 1-.229-3.076 18.436 18.436 0 0 1 8.8-15.705v6.1a.8.8 0 1 0 1.6.023v-7.218a.8.8 0 0 0 0-.55v-.25a.8.8 0 0 0-.8-.8h-8.225999999999999zm35.67 13.6a.8.8 0 0 0-.627.942v.008a21.1 21.1 0 0 1 .376 3.85 18.366 18.366 0 0 1-8.8 15.655v-6.049a.8.8 0 0 0-.771-.828.764.764 0 0 0-.1 0 .853.853 0 0 0-.1.025.8.8 0 0 0-.625.8v7.3a.808.808 0 0 0 0 .225v.475a.8.8 0 0 0 .8.8h8a.8.8 0 0 0 .023-1.6h-6.05a19.948 19.948 0 0 0 9.223-16.803 22.709 22.709 0 0 0-.425-4.152.8.8 0 0 0-.924-.648zm-36.395 12.8a.8.8 0 0 0-.65.8v8a.8.8 0 1 0 1.6.023v-6a20.006 20.006 0 0 0 16.794 9.186 21.6 21.6 0 0 0 3.324-.25.8.8 0 0 0-.12-1.6.791.791 0 0 0-.13.021 19.908 19.908 0 0 1-3.074.229 18.377 18.377 0 0 1-15.673-8.8h6.074a.8.8 0 0 0 .023-1.6h-8.018a.672.672 0 0 0-.075 0 .665.665 0 0 0-.074-.004z" transform="translate(-10 -10)"/></svg>